<?xml version="1.0" encoding="UTF-8" standalone="no"?>
<svg
   xmlns:dc="http://purl.org/dc/elements/1.1/"
   xmlns:cc="http://creativecommons.org/ns#"
   xmlns:rdf="http://www.w3.org/1999/02/22-rdf-syntax-ns#"
   xmlns:svg="http://www.w3.org/2000/svg"
   xmlns="http://www.w3.org/2000/svg"
   xmlns:sodipodi="http://sodipodi.sourceforge.net/DTD/sodipodi-0.dtd"
   xmlns:inkscape="http://www.inkscape.org/namespaces/inkscape"
   id="svg36"
   viewBox="0 0 22 22"
   version="1.1"
   sodipodi:docname="audio.svg"
   inkscape:version="1.0alpha2 (013ca77ad3, 2019-07-19)">
  <metadata
     id="metadata70">
    <rdf:RDF>
      <cc:Work
         rdf:about="">
        <dc:format>image/svg+xml</dc:format>
        <dc:type
           rdf:resource="http://purl.org/dc/dcmitype/StillImage" />
        <dc:title></dc:title>
      </cc:Work>
    </rdf:RDF>
  </metadata>
  <defs
     id="defs68" />
  <sodipodi:namedview
     pagecolor="#ffffff"
     bordercolor="#666666"
     inkscape:document-rotation="0"
     borderopacity="1"
     objecttolerance="10"
     gridtolerance="10"
     guidetolerance="10"
     inkscape:pageopacity="0"
     inkscape:pageshadow="2"
     inkscape:window-width="1600"
     inkscape:window-height="835"
     id="namedview66"
     showgrid="true"
     inkscape:zoom="2.7360211"
     inkscape:cx="100.64289"
     inkscape:cy="41.412615"
     inkscape:window-x="0"
     inkscape:window-y="0"
     inkscape:window-maximized="1"
     inkscape:current-layer="svg36">
    <inkscape:grid
       type="xygrid"
       id="grid895" />
  </sodipodi:namedview>
  <style
     type="text/css"
     id="current-color-scheme">
        .ColorScheme-Text {
            color:#232629;
        }
        .ColorScheme-NegativeText {
            color:#da4453;
        }
    </style>
  <g
     id="22-22-audio-volume-muted">
    <path
       id="path30"
       d="m66 0h22v22h-22z"
       fill="none" />
    <path
       sodipodi:nodetypes="cccccccccccccccccc"
       inkscape:connector-curvature="0"
       id="path32"
       d="m 74,5 -3,3 h -1 -1 v 6 h 1 1 l 3,3 h 1 V 5 Z m 0,1.4140625 V 15.585938 L 71.414063,13 H 70 V 9 h 1.414063 z"
       class="ColorScheme-Text"
       fill="currentColor" />
    <path
       id="path34"
       d="m83 7a4 4 0 0 0-4 4 4 4 0 0 0 4 4 4 4 0 0 0 4-4 4 4 0 0 0-4-4zm0 1a3 3 0 0 1 3 3 3 3 0 0 1-0.557 1.736l-4.177-4.176a3 3 0 0 1 1.734-0.56zm-2.443 1.264 4.177 4.177a3 3 0 0 1-1.734 0.559 3 3 0 0 1-3-3 3 3 0 0 1 0.557-1.736z"
       class="ColorScheme-NegativeText"
       fill="currentColor" />
  </g>
  <g
     id="22-22-audio-volume-low">
    <path
       id="path2"
       d="m44 0h22v22h-22z"
       fill="none" />
    <g
       id="g11"
       class="ColorScheme-Text"
       fill="currentColor">
      <path
         inkscape:connector-curvature="0"
         id="path6"
         d="M 59.660156,3.3398438 58.958984,4.0410156 C 60.826685,5.7750161 62,8.246177 62,11 c 0,2.753823 -1.173315,5.224984 -3.041016,6.958984 l 0.701172,0.701172 C 61.709907,16.743124 63,14.023673 63,11 63,7.9763276 61.709907,5.2568758 59.660156,3.3398438 Z"
         opacity=".25" />
      <path
         inkscape:connector-curvature="0"
         id="path4"
         d="m 57.539062,5.4609375 -0.703124,0.703125 C 58.161692,7.3531988 59,9.0745453 59,11 c 0,1.925455 -0.838307,3.646801 -2.164062,4.835938 l 0.703124,0.703124 C 59.046551,15.166392 60,13.195124 60,11 60,8.8048763 59.046552,6.8336077 57.539062,5.4609375 Z"
         opacity=".25" />
      <path
         inkscape:connector-curvature="0"
         id="path8"
         d="m 52,5 -3,3 h -1 -1 v 6 h 1 1 l 3,3 h 1 V 5 Z m 0,1.4140625 V 15.585938 L 49.414063,13 H 48 V 9 h 1.414063 z M 55.40625,7.59375 54.703125,8.296875 C 55.489039,8.9376646 56,9.9023632 56,11 c 0,1.097637 -0.510961,2.062335 -1.296875,2.703125 L 55.40625,14.40625 C 56.372993,13.579927 57,12.367019 57,11 57,9.6329811 56.372993,8.4200733 55.40625,7.59375 Z" />
    </g>
  </g>
  <g
     id="22-22-audio-volume-medium">
    <path
       id="path12"
       d="m22 0h22v22h-22z"
       fill="none" />
    <g
       id="g18"
       class="ColorScheme-Text"
       fill="currentColor">
      <path
         inkscape:connector-curvature="0"
         id="path16"
         d="M 37.660156,3.3398438 36.958984,4.0410156 C 38.826685,5.7750161 40,8.246177 40,11 c 0,2.753823 -1.173315,5.224984 -3.041016,6.958984 l 0.701172,0.701172 C 39.709907,16.743124 41,14.023673 41,11 41,7.9763276 39.709907,5.2568758 37.660156,3.3398438 Z"
         opacity=".25" />
      <path
         inkscape:connector-curvature="0"
         id="path14"
         d="m 35.539062,5.4609375 -0.703124,0.703125 C 36.161692,7.3531988 37,9.0745453 37,11 c 0,1.925455 -0.838307,3.646801 -2.164062,4.835938 l 0.703124,0.703124 C 37.046551,15.166392 38,13.195124 38,11 38,8.8048763 37.046552,6.8336077 35.539062,5.4609375 Z" />
      <path
         inkscape:connector-curvature="0"
         id="path18"
         d="m 30,5 -3,3 h -1 -1 v 6 h 1 1 l 3,3 h 1 V 5 Z m 0,1.4140625 V 15.585938 L 27.414063,13 H 26 V 9 h 1.414063 z M 33.40625,7.59375 32.703125,8.296875 C 33.489039,8.9376646 34,9.9023632 34,11 c 0,1.097637 -0.510961,2.062335 -1.296875,2.703125 L 33.40625,14.40625 C 34.372993,13.579927 35,12.367019 35,11 35,9.6329811 34.372993,8.4200733 33.40625,7.59375 Z" />
    </g>
  </g>
  <g
     id="22-22-audio-volume-high">
    <path
       id="path22"
       d="m0 0h22v22h-22z"
       fill="none" />
    <g
       id="g25"
       class="ColorScheme-Text"
       fill="currentColor">
      <path
         id="path854"
         d="M 15.660156,3.3398438 14.958984,4.0410156 C 16.826685,5.7750161 18,8.246177 18,11 c 0,2.753823 -1.173315,5.224984 -3.041016,6.958984 l 0.701172,0.701172 C 17.709907,16.743124 19,14.023673 19,11 19,7.9763276 17.709907,5.2568758 15.660156,3.3398438 Z" />
      <path
         id="path24"
         d="m 13.539062,5.4609375 -0.703124,0.703125 C 14.161692,7.3531988 15,9.0745453 15,11 c 0,1.925455 -0.838307,3.646801 -2.164062,4.835938 l 0.703124,0.703124 C 15.046551,15.166392 16,13.195124 16,11 16,8.8048763 15.046552,6.8336077 13.539062,5.4609375 Z" />
      <path
         id="path852"
         d="M 8 5 L 5 8 L 4 8 L 3 8 L 3 14 L 4 14 L 5 14 L 8 17 L 9 17 L 9 5 L 8 5 z M 8 6.4140625 L 8 15.585938 L 5.4140625 13 L 4 13 L 4 9 L 5.4140625 9 L 8 6.4140625 z M 11.40625 7.59375 L 10.703125 8.296875 C 11.489039 8.9376646 12 9.9023632 12 11 C 12 12.097637 11.489039 13.062335 10.703125 13.703125 L 11.40625 14.40625 C 12.372993 13.579927 13 12.367019 13 11 C 13 9.6329811 12.372993 8.4200733 11.40625 7.59375 z " />
    </g>
  </g>
  <g
     id="audio-volume-muted"
     transform="matrix(1.4545455 0 0 1.4545455 0 -32)">
    <path
       id="path30-6"
       d="m66 0h22v22h-22z"
       fill="none" />
    <path
       id="path852-8-9-1"
       d="m76.999998 2.7499997-5.5 5.5v5.5000013l5.5 5.499999h1.375v-16.5zm-8.25 5.5v5.5000013h2.0625v-5.5000013z"
       class="ColorScheme-Text"
       fill="currentColor" />
    <path
       id="path1152"
       d="m83.187496 6.8749999c-2.278173 0-4.124999 1.846831-4.124999 4.1250001 0 2.278169 1.846826 4.125 4.124999 4.125 2.278174 0 4.125-1.846831 4.125-4.125 0-2.2781691-1.846826-4.1250001-4.125-4.1250001zm0 .6875c1.898479 0 3.4375 1.539021 3.4375 3.4375001 0 .824749-.310724 1.556077-.794922 2.148438l-4.791015-4.7910161c.592361-.484197 1.323688-.794922 2.148437-.794922zm-2.642578 1.289063 4.791016 4.7910151c-.592361.484197-1.323689.794922-2.148438.794922-1.898478 0-3.4375-1.539021-3.4375-3.4375 0-.824749.310725-1.5560761.794922-2.1484371z"
       class="ColorScheme-NegativeText"
       fill="currentColor" />
  </g>
  <g
     id="audio-volume-low"
     transform="matrix(1.4545455 0 0 1.4545455 0 -32)">
    <path
       id="path2-5"
       d="m44 0h22v22h-22z"
       fill="none" />
    <path
       id="path852-8-9"
       d="m54.999998 2.7499997-5.499999 5.5v5.5000013l5.499999 5.499998h1.375001v-16.499999zm-8.249999 5.5v5.5000013h2.0625v-5.5000013z"
       class="ColorScheme-Text"
       fill="currentColor" />
    <path
       id="path926-73"
       d="m58.265624 3.4348147-.167847.674072a7.5624998 7.5624998 0 0 1 4.464722 6.8911133 7.5624998 7.5624998 0 0 1 -4.464722 6.888427l.170532.683472a8.2499997 8.2499997 0 0 0 4.981689-7.571899 8.2499997 8.2499997 0 0 0 -4.984374-7.5651853z"
       class="ColorScheme-Text"
       fill="currentColor"
       opacity=".25" />
    <path
       id="path926-7-6"
       d="m58.374388 7.5718997-.359863.617675a4.125 4.125 0 0 1 1.110474 2.8104253 4.125 4.125 0 0 1 -1.111817 2.809082l.359864.617676a4.8125 4.8125 0 0 0 1.439453-3.426758 4.8125 4.8125 0 0 0 -1.438111-3.4281003z"
       class="ColorScheme-Text"
       fill="currentColor"
       opacity=".25" />
  </g>
  <g
     id="audio-volume-medium"
     transform="matrix(1.4545455 0 0 1.4545455 0 -32)">
    <path
       id="path12-7"
       d="m22 0h22v22h-22z"
       fill="none" />
    <path
       id="path852-8-2"
       d="m32.999999 2.7499999-5.5 5.5v5.5000011l5.5 5.499998h1.375001v-16.499999zm-8.25 5.5v5.5000011h2.0625v-5.5000011z"
       class="ColorScheme-Text"
       fill="currentColor" />
    <path
       id="path926-2"
       d="m36.265624 3.4348149-.167847.674072a7.5624998 7.5624998 0 0 1 4.464722 6.8911131 7.5624998 7.5624998 0 0 1 -4.464722 6.888427l.170532.683472a8.2499997 8.2499997 0 0 0 4.981689-7.571899 8.2499997 8.2499997 0 0 0 -4.984374-7.5651851z"
       class="ColorScheme-Text"
       fill="currentColor"
       opacity=".25" />
    <path
       id="path926-7-8"
       d="m36.374388 7.5718999-.359863.617675a4.125 4.125 0 0 1 1.110474 2.8104251 4.125 4.125 0 0 1 -1.111817 2.809082l.359864.617676a4.8125 4.8125 0 0 0 1.439453-3.426758 4.8125 4.8125 0 0 0 -1.438111-3.4281001z"
       class="ColorScheme-Text"
       fill="currentColor" />
  </g>
  <g
     id="audio-volume-high">
    <path
       id="path22-6"
       d="m0-32h32.000001v32.000001h-32.000001z"
       fill="none" />
    <path
       id="path852-8"
       d="m16-28-8 8v8.000001l8 7.9999984h2.000001v-23.999999zm-12 8v8.000001h2.9999999v-8.000001z"
       class="ColorScheme-Text"
       fill="currentColor" />
    <path
       id="path926"
       d="m20.75-27.003906-.244141.980468a11 11 0 0 1 6.494141 10.023438 11 11 0 0 1 -6.494141 10.0195312l.248047.9941407a12 12 0 0 0 7.246094-11.0136719 12 12 0 0 0 -7.25-11.003906z"
       class="ColorScheme-Text"
       fill="currentColor" />
    <path
       id="path926-7"
       d="m20.908203-20.986328-.523437.898437a6.0000002 6.0000002 0 0 1 1.615234 4.087891 6.0000002 6.0000002 0 0 1 -1.617188 4.085938l.523438.898437a7.0000002 7.0000002 0 0 0 2.09375-4.984375 7.0000002 7.0000002 0 0 0 -2.091797-4.986328z"
       class="ColorScheme-Text"
       fill="currentColor" />
  </g>
  <g
     id="16-16-audio-volume-muted">
    <path
       id="rect858-7"
       d="m48 22h16v16h-16z"
       fill="none" />
    <path
       sodipodi:nodetypes="cccccccccccccccccc"
       inkscape:connector-curvature="0"
       id="path934"
       d="m 53,24 -3,3 h -1 -1 v 6 h 1 1 l 3,3 h 1 V 24 Z m 0,1.414063 v 9.171875 L 50.414063,32 H 49 v -4 h 1.414063 z"
       class="ColorScheme-Text"
       fill="currentColor" />
    <path
       id="path936"
       d="m 61,26.999978 a 3.0000002,3.0000002 0 0 0 -1.736328,0.55664 l -0.0019,-0.0019 -0.01176,0.01172 A 3.0000002,3.0000002 0 0 0 58.5723,28.244171 l -0.01758,0.01758 0.0038,0.0039 A 3.0000002,3.0000002 0 0 0 58,30.000028 a 3.0000002,3.0000002 0 0 0 3,2.999999 3.0000002,3.0000002 0 0 0 1.736328,-0.55664 l 0.0019,0.0019 0.01164,-0.01164 a 3.0000002,3.0000002 0 0 0 0.677914,-0.677758 l 0.01758,-0.01758 -0.0038,-0.0039 a 3.0000002,3.0000002 0 0 0 0.558478,-1.734425 3.0000002,3.0000002 0 0 0 -3,-3 z m 0,1.000001 a 2.0000002,2.0000002 0 0 1 1.999999,1.999999 2.0000002,2.0000002 0 0 1 -0.279295,1.013673 L 59.986329,28.279274 A 2.0000002,2.0000002 0 0 1 61,27.999979 Z m -1.720703,0.986328 2.734374,2.734375 A 2.0000002,2.0000002 0 0 1 61,31.999979 2.0000002,2.0000002 0 0 1 59.000001,29.999978 2.0000002,2.0000002 0 0 1 59.279297,28.986307 Z"
       class="ColorScheme-NegativeText"
       fill="currentColor" />
  </g>
  <g
     id="16-16-audio-volume-high">
    <path
       id="rect858"
       d="m0 22h16v16h-16z"
       fill="none" />
    <path
       inkscape:connector-curvature="0"
       id="path1024"
       d="M 5,24 2,27 H 1 0 v 6 h 1 1 l 3,3 H 6 V 24 Z m 0,1.414063 v 9.171875 L 2.4140625,32 H 1 V 28 H 2.4140625 Z M 8.40625,26.59375 7.703125,27.296875 C 8.489039,27.937665 9,28.902363 9,30 9,31.097637 8.489039,32.062335 7.703125,32.703125 L 8.40625,33.40625 C 9.372993,32.579927 10,31.367019 10,30 10,28.632981 9.372993,27.420073 8.40625,26.59375 Z"
       class="ColorScheme-Text"
       fill="currentColor" />
    <path
       inkscape:connector-curvature="0"
       id="path963"
       d="M 10.539124,24.461 9.836,25.164125 c 1.325754,1.189136 2.164062,2.910482 2.164062,4.835937 0,1.925455 -0.838307,3.646801 -2.164062,4.835938 l 0.703124,0.703124 c 1.507489,-1.37267 2.460938,-3.343938 2.460938,-5.539062 0,-2.195124 -0.953448,-4.166392 -2.460938,-5.539062 z"
       class="ColorScheme-Text"
       fill="currentColor" />
    <path
       inkscape:connector-curvature="0"
       id="path963-9"
       d="M 12.660172,22.34 11.959,23.041172 c 1.867701,1.734 3.041016,4.205161 3.041016,6.958984 0,2.753823 -1.173315,5.224984 -3.041016,6.958984 l 0.701172,0.701172 c 2.049751,-1.917032 3.339844,-4.636483 3.339844,-7.660156 0,-3.023672 -1.290093,-5.743124 -3.339844,-7.660156 z"
       class="ColorScheme-Text"
       fill="currentColor" />
  </g>
  <g
     id="16-16-audio-volume-medium">
    <path
       id="rect858-3"
       d="m16 22h16v16h-16z"
       fill="none" />
    <path
       inkscape:connector-curvature="0"
       id="path1126"
       d="m 21,24 -3,3 h -1 -1 v 6 h 1 1 l 3,3 h 1 V 24 Z m 0,1.414063 v 9.171875 L 18.414063,32 H 17 v -4 h 1.414063 z m 3.40625,1.179687 -0.703125,0.703125 C 24.489039,27.937665 25,28.902363 25,30 c 0,1.097637 -0.510961,2.062335 -1.296875,2.703125 L 24.40625,33.40625 C 25.372993,32.579927 26,31.367019 26,30 26,28.632981 25.372993,27.420073 24.40625,26.59375 Z"
       class="ColorScheme-Text"
       fill="currentColor" />
    <path
       inkscape:connector-curvature="0"
       id="path963-2"
       d="M 26.539124,24.461 25.836,25.164125 c 1.325754,1.189136 2.164062,2.910482 2.164062,4.835937 0,1.925455 -0.838307,3.646801 -2.164062,4.835938 l 0.703124,0.703124 c 1.507489,-1.37267 2.460938,-3.343938 2.460938,-5.539062 0,-2.195124 -0.953448,-4.166392 -2.460938,-5.539062 z"
       class="ColorScheme-Text"
       fill="currentColor" />
    <path
       inkscape:connector-curvature="0"
       id="path963-9-2"
       d="M 28.660172,22.34 27.959,23.041172 c 1.867701,1.734 3.041016,4.205161 3.041016,6.958984 0,2.753823 -1.173315,5.224984 -3.041016,6.958984 l 0.701172,0.701172 c 2.049751,-1.917032 3.339844,-4.636483 3.339844,-7.660156 0,-3.023672 -1.290093,-5.743124 -3.339844,-7.660156 z"
       class="ColorScheme-Text"
       fill="currentColor"
       opacity=".25" />
  </g>
  <g
     id="16-16-audio-volume-low">
    <path
       id="rect858-6"
       d="m32 22h16v16h-16z"
       fill="none" />
    <path
       inkscape:connector-curvature="0"
       id="path901"
       d="m 37,24 -3,3 h -1 -1 v 6 h 1 1 l 3,3 h 1 V 24 Z m 0,1.414063 v 9.171875 L 34.414063,32 H 33 v -4 h 1.414063 z m 3.40625,1.179687 -0.703125,0.703125 C 40.489039,27.937665 41,28.902363 41,30 c 0,1.097637 -0.510961,2.062335 -1.296875,2.703125 L 40.40625,33.40625 C 41.372993,32.579927 42,31.367019 42,30 42,28.632981 41.372993,27.420073 40.40625,26.59375 Z"
       class="ColorScheme-Text"
       fill="currentColor" />
    <path
       inkscape:connector-curvature="0"
       id="path963-2-8"
       d="M 42.539124,24.461 41.836,25.164125 c 1.325754,1.189136 2.164062,2.910482 2.164062,4.835937 0,1.925455 -0.838307,3.646801 -2.164062,4.835938 l 0.703124,0.703124 c 1.507489,-1.37267 2.460938,-3.343938 2.460938,-5.539062 0,-2.195124 -0.953448,-4.166392 -2.460938,-5.539062 z"
       class="ColorScheme-Text"
       fill="currentColor"
       opacity=".25" />
    <path
       inkscape:connector-curvature="0"
       id="path963-9-2-9"
       d="M 44.660172,22.34 43.959,23.041172 c 1.867701,1.734 3.041016,4.205161 3.041016,6.958984 0,2.753823 -1.173315,5.224984 -3.041016,6.958984 l 0.701172,0.701172 c 2.049751,-1.917032 3.339844,-4.636483 3.339844,-7.660156 0,-3.023672 -1.290093,-5.743124 -3.339844,-7.660156 z"
       class="ColorScheme-Text"
       fill="currentColor"
       opacity=".25" />
  </g>
</svg>
