<?xml version="1.0" encoding="UTF-8" standalone="no"?>
<svg
   xmlns:dc="http://purl.org/dc/elements/1.1/"
   xmlns:cc="http://creativecommons.org/ns#"
   xmlns:rdf="http://www.w3.org/1999/02/22-rdf-syntax-ns#"
   xmlns:svg="http://www.w3.org/2000/svg"
   xmlns="http://www.w3.org/2000/svg"
   xmlns:xlink="http://www.w3.org/1999/xlink"
   xmlns:sodipodi="http://sodipodi.sourceforge.net/DTD/sodipodi-0.dtd"
   xmlns:inkscape="http://www.inkscape.org/namespaces/inkscape"
   sodipodi:docname="notification.svg"
   height="100%"
   width="100%"
   inkscape:version="1.0alpha2 (e8017634da, 2019-07-17)"
   version="1.1"
   id="svg"
   viewBox="0 0 22 22">
  <defs
     id="defs81">
    <style
       type="text/css"
       id="current-color-scheme">
      .ColorScheme-Text {
        color:#7B7C7E;
      }
      .ColorScheme-Background{
        color:#EFF0F1;
      }
      .ColorScheme-Highlight{
        color:#3DAEE6;
      }
      .ColorScheme-ViewText {
        color:#7B7C7E;
      }
      .ColorScheme-ViewBackground{
        color:#FCFCFC;
      }
      .ColorScheme-ViewHover {
        color:#3DAEE6;
      }
      .ColorScheme-ViewFocus{
        color:#1E92FF;
      }
      .ColorScheme-ButtonText {
        color:#7B7C7E;
      }
      .ColorScheme-ButtonBackground{
        color:#EFF0F1;
      }
      .ColorScheme-ButtonHover {
        color:#3DAEE6;
      }
      .ColorScheme-ButtonFocus{
        color:#1E92FF;
      }
</style>
    <linearGradient
       y2="912.77173"
       x2="317.91653"
       y1="909.77173"
       x1="317.91653"
       gradientUnits="userSpaceOnUse"
       id="linearGradient5399"
       xlink:href="#linearGradient4254"
       inkscape:collect="always" />
    <linearGradient
       id="linearGradient4254">
      <stop
         style="stop-color:#888888;stop-opacity:1;"
         offset="0"
         id="stop4256" />
      <stop
         style="stop-color:#232323;stop-opacity:1;"
         offset="1"
         id="stop4258" />
    </linearGradient>
  </defs>
  <metadata
     id="metadata34">
    <rdf:RDF>
      <cc:Work
         rdf:about="">
        <dc:format>image/svg+xml</dc:format>
        <dc:type
           rdf:resource="http://purl.org/dc/dcmitype/StillImage" />
        <dc:title />
      </cc:Work>
    </rdf:RDF>
  </metadata>
  <sodipodi:namedview
     inkscape:document-rotation="0"
     inkscape:snap-bbox="true"
     inkscape:guide-bbox="true"
     showguides="true"
     borderlayer="true"
     inkscape:current-layer="svg"
     inkscape:window-maximized="1"
     inkscape:window-y="0"
     inkscape:window-x="0"
     inkscape:cy="17.190635"
     inkscape:cx="-5.6563315"
     inkscape:zoom="11.313709"
     showgrid="true"
     id="namedview32"
     inkscape:window-height="835"
     inkscape:window-width="1600"
     inkscape:pageshadow="2"
     inkscape:pageopacity="0.11372549"
     guidetolerance="10"
     gridtolerance="10"
     objecttolerance="10"
     borderopacity="1"
     bordercolor="#666666"
     pagecolor="#3daee9">
    <inkscape:grid
       empopacity="0.11372549"
       empcolor="#0000ff"
       opacity="0.05490196"
       color="#0000ff"
       snapvisiblegridlinesonly="true"
       enabled="true"
       visible="true"
       empspacing="4"
       id="grid3046"
       type="xygrid" />
  </sodipodi:namedview>
  <g
     transform="translate(39,-1)"
     id="notification-progress-active">
    <rect
       y="1"
       x="1"
       height="22"
       width="22"
       id="rect3009"
       style="fill:#ffffff;fill-opacity:0;stroke:none" />
    <rect
       style="fill:#3daee9;fill-opacity:1;stroke:none"
       id="rect5921-0"
       width="15.999977"
       height="15.999987"
       x="4.000011"
       y="4"
       ry="7.9999886" />
  </g>
  <g
     transform="translate(-1,-1)"
     id="notification-inactive">
    <rect
       style="fill:#ffffff;fill-opacity:0;stroke:none"
       id="rect3028"
       width="22"
       height="22"
       x="1"
       y="1" />
    <path
       inkscape:connector-curvature="0"
       class="ColorScheme-Text"
       id="path3016"
       transform="translate(1,1)"
       d="m 11,3 c -4.4320001,0 -8,3.5680001 -8,8 0,4.432 3.5679999,8 8,8 4.432,0 8,-3.568 8,-8 0,-4.4319999 -3.568,-8 -8,-8 z m -0.15625,1 0.3125,0 C 14.949423,4 18,7.0505913 18,10.84375 l 0,0.3125 C 18,14.949409 14.949423,18 11.15625,18 l -0.3125,0 C 7.0505771,18 4,14.949409 4,11.15625 l 0,-0.3125 C 4,7.0505913 7.0505771,4 10.84375,4 z m -0.65625,3 0,5.59375 1.625,0 0,-5.59375 -1.625,0 z M 11,13.40625 c -0.368186,0 -0.8125,0.41306 -0.8125,0.78125 0,0.36819 0.444314,0.8125 0.8125,0.8125 0.368186,0 0.8125,-0.44431 0.8125,-0.8125 0,-0.36819 -0.444314,-0.78125 -0.8125,-0.78125 z"
       style="fill:currentColor;fill-opacity:0.94117647;stroke:none" />
  </g>
  <g
     transform="translate(39,39)"
     id="notification-progress-inactive">
    <rect
       y="1"
       x="1"
       height="22"
       width="22"
       id="rect3060"
       style="fill:#ffffff;fill-opacity:0;stroke:none" />
    <rect
       class="ColorScheme-Text"
       style="opacity:0.4;fill:currentColor;fill-opacity:1;stroke:none"
       id="rect5933-8"
       width="15.999977"
       height="15.999987"
       x="4.000011"
       y="4"
       ry="7.9999886" />
  </g>
  <g
     transform="translate(-1,39)"
     id="notification-active">
    <rect
       style="fill:#ffffff;fill-opacity:0;stroke:none"
       id="rect3068"
       width="22"
       height="22"
       x="1"
       y="1" />
    <rect
       ry="7.999989"
       y="4"
       x="4.000011"
       height="15.999987"
       width="15.999978"
       id="rect4130-82-0"
       style="fill:#3daee9;fill-opacity:1;stroke:none" />
    <path
       sodipodi:nodetypes="cccccsssss"
       id="rect4142-6"
       d="m 11.202644,7.1999826 -0.0026,7.2000124 1.599998,0 0.0026,-7.2000124 z m 0.799999,7.9999894 c -0.441822,0 -0.799999,0.358171 -0.799999,0.799999 0,0.441827 0.358177,0.799999 0.799999,0.799999 0.441822,0 0.799999,-0.358172 0.799999,-0.799999 0,-0.441828 -0.358177,-0.799999 -0.799999,-0.799999 z"
       style="fill:#fcfcfc;fill-opacity:1;stroke:none"
       inkscape:connector-curvature="0" />
  </g>
  <path
     sodipodi:nodetypes="cccc"
     id="expander-bottom"
     d="M 6,0 0,6.0019536 0.7070312,6.7089846 6,1.4160156 11.292969,6.7089846 12,6.0019536 Z"
     style="fill:currentColor;fill-opacity:1"
     inkscape:connector-curvature="0"
     class="ColorScheme-Text" />
  <path
     style="fill:currentColor;fill-opacity:1"
     d="m -18,17 2,2 2,-2 z"
     id="expander-top"
     sodipodi:nodetypes="cccc"
     inkscape:connector-curvature="0"
     class="ColorScheme-Text" />
  <path
     sodipodi:nodetypes="cccc"
     id="expander-right"
     d="m -13,18 -2,2 2,2 z"
     style="fill:currentColor;fill-opacity:1"
     inkscape:connector-curvature="0"
     class="ColorScheme-Text" />
  <path
     style="fill:currentColor;fill-opacity:1"
     d="m -19,18 2,2 -2,2 z"
     id="expander-left"
     sodipodi:nodetypes="cccc"
     inkscape:connector-curvature="0"
     class="ColorScheme-Text" />
  <g
     id="notification-disabled"
     transform="translate(-1,-41)">
    <rect
       y="1"
       x="1"
       height="22"
       width="22"
       id="rect3022"
       style="fill:#ffffff;fill-opacity:0;stroke:none" />
    <path
       style="fill:currentColor;fill-opacity:0.94117647000000004;stroke:none;opacity:0.4"
       d="m 11,3 c -4.4320001,0 -8,3.5680001 -8,8 0,4.432 3.5679999,8 8,8 4.432,0 8,-3.568 8,-8 0,-4.4319999 -3.568,-8 -8,-8 z m -0.15625,1 0.3125,0 C 14.949423,4 18,7.0505913 18,10.84375 l 0,0.3125 C 18,14.949409 14.949423,18 11.15625,18 l -0.3125,0 C 7.0505771,18 4,14.949409 4,11.15625 l 0,-0.3125 C 4,7.0505913 7.0505771,4 10.84375,4 z m -0.65625,3 0,5.59375 1.625,0 0,-5.59375 -1.625,0 z M 11,13.40625 c -0.368186,0 -0.8125,0.41306 -0.8125,0.78125 0,0.36819 0.444314,0.8125 0.8125,0.8125 0.368186,0 0.8125,-0.44431 0.8125,-0.8125 0,-0.36819 -0.444314,-0.78125 -0.8125,-0.78125 z"
       transform="translate(1,1)"
       id="path3024"
       class="ColorScheme-Text"
       inkscape:connector-curvature="0" />
  </g>
  <g
     id="notification-empty"
     transform="translate(39,-41)">
    <rect
       y="1"
       x="1"
       height="22"
       width="22"
       id="rect3798"
       style="fill:#ffffff;fill-opacity:0;stroke:none" />
    <path
       sodipodi:nodetypes="ssssssssssssss"
       style="fill:currentColor;fill-opacity:0.94117647;stroke:none"
       d="m 11,3 c -4.4320001,0 -8,3.5680001 -8,8 0,4.432 3.5679999,8 8,8 4.432,0 8,-3.568 8,-8 0,-4.4319999 -3.568,-8 -8,-8 z m -0.15625,1 0.3125,0 C 14.949423,4 18,7.0505913 18,10.84375 l 0,0.3125 C 18,14.949409 14.949423,18 11.15625,18 l -0.3125,0 C 7.0505771,18 4,14.949409 4,11.15625 l 0,-0.3125 C 4,7.0505913 7.0505771,4 10.84375,4 z"
       transform="translate(1,1)"
       id="path3800"
       class="ColorScheme-Text"
       inkscape:connector-curvature="0" />
  </g>
</svg>
