<?xml version="1.0" encoding="UTF-8" standalone="no"?>
<svg
   xmlns:dc="http://purl.org/dc/elements/1.1/"
   xmlns:cc="http://creativecommons.org/ns#"
   xmlns:rdf="http://www.w3.org/1999/02/22-rdf-syntax-ns#"
   xmlns:svg="http://www.w3.org/2000/svg"
   xmlns="http://www.w3.org/2000/svg"
   xmlns:sodipodi="http://sodipodi.sourceforge.net/DTD/sodipodi-0.dtd"
   xmlns:inkscape="http://www.inkscape.org/namespaces/inkscape"
   inkscape:version="1.0alpha2 (c102c461b3, 2019-08-04)"
   sodipodi:docname="start.svg"
   version="1.1"
   id="svg2"
   viewBox="0 0 54 32">
  <sodipodi:namedview
     inkscape:current-layer="svg2"
     inkscape:window-maximized="1"
     inkscape:window-y="0"
     inkscape:window-x="0"
     inkscape:cy="27.502594"
     inkscape:cx="28.650962"
     inkscape:zoom="7.5240581"
     showgrid="true"
     id="namedview17"
     inkscape:window-height="834"
     inkscape:window-width="1600"
     inkscape:pageshadow="2"
     inkscape:pageopacity="0"
     guidetolerance="10"
     gridtolerance="10"
     objecttolerance="10"
     borderopacity="1"
     inkscape:document-rotation="0"
     bordercolor="#666666"
     pagecolor="#ffffff">
    <inkscape:grid
       id="grid842"
       type="xygrid" />
  </sodipodi:namedview>
  <metadata
     id="metadata21">
    <rdf:RDF>
      <cc:Work
         rdf:about="">
        <dc:format>image/svg+xml</dc:format>
        <dc:type
           rdf:resource="http://purl.org/dc/dcmitype/StillImage" />
        <dc:title></dc:title>
      </cc:Work>
    </rdf:RDF>
  </metadata>
  <defs
     id="defs3051">
    <style
       id="current-color-scheme"
       type="text/css">
      .ColorScheme-Text {
        color:#31363b;
      }
      </style>
  </defs>
  <g
     transform="translate(0,13)"
     id="16-16-start-here-kde">
    <path
       id="path17"
       d="M -16,3 -16,19 0,19 0,3 -16,3 Z"
       style="opacity:1;fill:none" />
    <path
       id="path11"
       style="opacity:1;fill:currentColor;stop-opacity:1"
       d="M 0,3 -9,4.125 V 10 H 0 Z M -10,4.25 -16,5 v 5 h 6 z M -16,11 v 6 l 6,0.75 V 11 Z m 7,0 v 6.875 L 0,19 v -8 z"
       class="ColorScheme-Text"
       inkscape:connector-curvature="0" />
  </g>
  <g
     id="22-22-start-here-kde"
     transform="translate(1,-1)">
    <rect
       y="11"
       x="-1"
       height="22"
       width="22"
       id="rect4150"
       style="fill:none;fill-opacity:1;stroke:none" />
    <path
       id="path16"
       style="opacity:1;fill:currentColor;stop-opacity:1"
       d="M 18,14 9,15.125 V 21 h 9 z M 8,15.25 2,16 v 5 H 8 Z M 2,22 v 6 l 6,0.75 V 22 Z m 7,0 v 6.875 L 18,30 v -8 z"
       class="ColorScheme-Text"
       inkscape:connector-curvature="0" />
  </g>
  <g
     id="start-here-kde"
     transform="translate(-46,-1)">
    <rect
       y="1"
       x="68"
       height="32"
       width="32"
       id="rect3343"
       style="fill:none;fill-rule:evenodd;stroke:none;stroke-width:1px;stroke-linecap:butt;stroke-linejoin:miter;stroke-opacity:1" />
    <path
       inkscape:connector-curvature="0"
       class="ColorScheme-Text"
       d="m 92,9 -9,1.125 V 16 h 9 z M 82,10.25 76,11 v 5 h 6 z M 76,17 v 6 l 6,0.75 V 17 Z m 7,0 v 6.875 L 92,25 v -8 z"
       style="fill:currentColor"
       id="path20" />
  </g>
</svg>
