<?xml version="1.0" encoding="UTF-8" standalone="no"?>
<svg
   xmlns:dc="http://purl.org/dc/elements/1.1/"
   xmlns:cc="http://creativecommons.org/ns#"
   xmlns:rdf="http://www.w3.org/1999/02/22-rdf-syntax-ns#"
   xmlns:svg="http://www.w3.org/2000/svg"
   xmlns="http://www.w3.org/2000/svg"
   xmlns:sodipodi="http://sodipodi.sourceforge.net/DTD/sodipodi-0.dtd"
   xmlns:inkscape="http://www.inkscape.org/namespaces/inkscape"
   version="1.0"
   inkscape:output_extension="org.inkscape.output.svgz.inkscape"
   sodipodi:docname="scrollbar.svg"
   inkscape:version="1.0alpha2 (e8017634da, 2019-07-17)"
   sodipodi:version="0.32"
   id="svg3642"
   height="98"
   width="48">
  <sodipodi:namedview
     inkscape:document-rotation="0"
     inkscape:window-maximized="1"
     gridtolerance="10000"
     objecttolerance="9"
     inkscape:guide-bbox="true"
     showguides="true"
     height="48px"
     width="48px"
     inkscape:window-y="0"
     inkscape:window-x="0"
     inkscape:window-height="835"
     inkscape:window-width="1600"
     inkscape:document-units="px"
     inkscape:grid-bbox="true"
     showgrid="true"
     inkscape:current-layer="layer1"
     inkscape:cy="47.917076"
     inkscape:cx="21.718326"
     inkscape:zoom="10.934388"
     inkscape:pageshadow="2"
     inkscape:pageopacity="1"
     borderopacity="1.0"
     bordercolor="#666666"
     pagecolor="#eff0f1"
     id="base">
    <inkscape:grid
       empopacity="0.03921569"
       empcolor="#0000ff"
       opacity="0.01960784"
       color="#0000ff"
       snapvisiblegridlinesonly="true"
       empspacing="5"
       type="xygrid"
       id="grid2555"
       enabled="true"
       visible="true" />
  </sodipodi:namedview>
  <defs
     id="defs3644">
    <style
       type="text/css"
       id="current-color-scheme">
      .ColorScheme-Text {
        color:#31363b;
        stop-color:#31363b;
      }
      .ColorScheme-Background {
        color:#eff0f1;
        stop-color:#eff0f1;
      }
      .ColorScheme-Highlight {
        color:#3daee9;
        stop-color:#3daee9;
      }
      .ColorScheme-ViewText {
        color:#31363b;
        stop-color:#31363b;
      }
      .ColorScheme-ViewBackground {
        color:#fcfcfc;
        stop-color:#fcfcfc;
      }
      .ColorScheme-ViewHover {
        color:#93cee9;
        stop-color:#93cee9;
      }
      .ColorScheme-ViewFocus{
        color:#3daee9;
        stop-color:#3daee9;
      }
      .ColorScheme-ButtonText {
        color:#31363b;
        stop-color:#31363b;
      }
      .ColorScheme-ButtonBackground {
        color:#eff0f1;
        stop-color:#eff0f1;
      }
      .ColorScheme-ButtonHover {
        color:#93cee9;
        stop-color:#93cee9;
      }
      .ColorScheme-ButtonFocus{
        color:#3daee9;
        stop-color:#3daee9;
      }
      </style>
  </defs>
  <metadata
     id="metadata3647">
    <rdf:RDF>
      <cc:Work
         rdf:about="">
        <dc:format>image/svg+xml</dc:format>
        <dc:type
           rdf:resource="http://purl.org/dc/dcmitype/StillImage" />
        <dc:title></dc:title>
      </cc:Work>
      <cc:Work
         rdf:about="">
        <dc:format>image/svg+xml</dc:format>
        <dc:type
           rdf:resource="http://purl.org/dc/dcmitype/StillImage" />
      </cc:Work>
    </rdf:RDF>
  </metadata>
  <g
     id="layer1"
     inkscape:label="Layer 1"
     inkscape:groupmode="layer">
    <rect
       class="ColorScheme-Text"
       y="20"
       x="24"
       height="10"
       width="1"
       id="slider-center"
       style="opacity:0.2;fill:currentColor;fill-opacity:1;fill-rule:evenodd;stroke:none" />
    <g
       transform="matrix(0.75,0,0,1,19.25,13)"
       id="slider-right">
      <path
         class="ColorScheme-Text"
         inkscape:connector-curvature="0"
         style="opacity:0.2;fill:currentColor;fill-opacity:1;fill-rule:evenodd;stroke:none"
         d="m 9,7 v 10 h 4 V 7 Z"
         id="rect3838" />
      <rect
         transform="matrix(1.3333333,0,0,1,-25.666667,-13)"
         y="20"
         x="29"
         height="10"
         width="1"
         id="rect3856"
         style="opacity:0.01;fill:#e4e6e8;fill-opacity:1;stroke:none" />
    </g>
    <g
       transform="matrix(0.75,0,0,0.75,19.25,13.75)"
       id="slider-topright">
      <rect
         transform="matrix(1.3333333,0,0,1.3333333,-25.666667,-18.333333)"
         y="15"
         x="26"
         height="4"
         width="4"
         id="rect3852"
         style="opacity:0.01;fill:#e4e6e8;fill-opacity:1;stroke:none" />
      <path
         sodipodi:nodetypes="ccccc"
         class="ColorScheme-Text"
         inkscape:connector-curvature="0"
         style="opacity:0.2;fill:currentColor;fill-opacity:1;fill-rule:evenodd;stroke:none"
         d="m 9,3 v 4 h 4 V 3 Z"
         id="rect3840" />
    </g>
    <g
       transform="matrix(0.75,0,0,0.75,19.25,18.25)"
       id="slider-bottomright">
      <rect
         transform="matrix(1.3333333,0,0,1.3333333,-25.666667,-24.333333)"
         y="31"
         x="26"
         height="4"
         width="4"
         id="rect3862"
         style="opacity:0.01;fill:#e4e6e8;fill-opacity:1;stroke:none" />
      <path
         sodipodi:nodetypes="ccccc"
         class="ColorScheme-Text"
         id="path3871"
         d="m 9,21 v -4 h 4 v 4 z"
         style="opacity:0.2;fill:currentColor;fill-opacity:1;fill-rule:evenodd;stroke:none"
         inkscape:connector-curvature="0" />
    </g>
    <g
       transform="matrix(-0.75,0,0,1,29.75,13)"
       id="slider-left">
      <path
         class="ColorScheme-Text"
         inkscape:connector-curvature="0"
         id="path3891"
         d="m 9,7 v 10 h 4 V 7 Z"
         style="opacity:0.2;fill:currentColor;fill-opacity:1;fill-rule:evenodd;stroke:none" />
      <rect
         transform="matrix(-1.3333333,0,0,1,39.666667,-13)"
         y="20"
         x="19"
         height="10"
         width="1"
         id="rect3854"
         style="opacity:0.01;fill:#e4e6e8;fill-opacity:1;stroke:none" />
    </g>
    <g
       transform="matrix(-0.75,0,0,0.75,29.75,13.75)"
       id="slider-topleft">
      <rect
         transform="matrix(-1.3333333,0,0,1.3333333,39.666667,-18.333333)"
         y="15"
         x="19"
         height="4"
         width="4"
         id="rect3848"
         style="opacity:0.01;fill:#e4e6e8;fill-opacity:1;stroke:none" />
      <path
         sodipodi:nodetypes="ccccc"
         class="ColorScheme-Text"
         inkscape:connector-curvature="0"
         id="path3895"
         d="m 9,3 v 4 h 4 V 3 Z"
         style="opacity:0.2;fill:currentColor;fill-opacity:1;fill-rule:evenodd;stroke:none" />
    </g>
    <g
       transform="matrix(-0.75,0,0,0.75,29.75,18.25)"
       id="slider-bottomleft">
      <rect
         transform="matrix(-1.3333333,0,0,1.3333333,39.666667,-24.333333)"
         y="31"
         x="19"
         height="4"
         width="4"
         id="rect3858"
         style="opacity:0.01;fill:#e4e6e8;fill-opacity:1;stroke:none" />
      <path
         sodipodi:nodetypes="ccccc"
         class="ColorScheme-Text"
         inkscape:connector-curvature="0"
         style="opacity:0.2;fill:currentColor;fill-opacity:1;fill-rule:evenodd;stroke:none"
         d="m 9,21 v -4 h 4 v 4 z"
         id="path3901" />
    </g>
    <g
       id="slider-top"
       transform="matrix(0,-0.75,-0.1,0,25.7,25.75)">
      <rect
         transform="matrix(0,-10,-1.3333333,0,34.333333,257)"
         y="15"
         x="24"
         height="4"
         width="1"
         id="rect3850"
         style="opacity:0.01;fill:#e4e6e8;fill-opacity:1;stroke:none" />
      <path
         class="ColorScheme-Text"
         style="opacity:0.2;fill:currentColor;fill-opacity:1;fill-rule:evenodd;stroke:none"
         d="m 9,7 v 10 h 4 V 7 Z"
         id="path3909"
         inkscape:connector-curvature="0" />
    </g>
    <g
       transform="matrix(0,0.75,-0.1,0,25.7,24.25)"
       id="slider-bottom">
      <rect
         transform="matrix(0,-10,1.3333333,0,-32.333333,257)"
         y="31"
         x="24"
         height="4"
         width="1"
         id="rect3860"
         style="opacity:0.01;fill:#e4e6e8;fill-opacity:1;stroke:none" />
      <path
         class="ColorScheme-Text"
         inkscape:connector-curvature="0"
         id="path3915"
         d="m 9,7 v 10 h 4 V 7 Z"
         style="opacity:0.2;fill:currentColor;fill-opacity:1;fill-rule:evenodd;stroke:none" />
    </g>
    <rect
       style="fill:#4e9a06;fill-opacity:1;fill-rule:nonzero;stroke:none"
       id="hint-scrollbar-size"
       width="8"
       height="8"
       x="4"
       y="25"
       rx="0"
       ry="8" />
    <rect
       ry="2.077126"
       rx="0"
       y="11.659418"
       x="7.2599602"
       height="2.077126"
       width="2.0329318"
       id="hint-tile-center"
       style="fill:#4e9a06;fill-opacity:1;fill-rule:nonzero;stroke:none" />
    <g
       inkscape:label="#slider-right-1"
       transform="matrix(0.75,0,0,1,33.25,13)"
       id="background-vertical-right">
      <path
         class="ColorScheme-Text"
         inkscape:connector-curvature="0"
         style="opacity:0.1;fill:currentColor;fill-opacity:1;fill-rule:evenodd;stroke:none"
         d="m 9,7 v 10 h 4 V 7 Z"
         id="rect3838-1" />
      <rect
         transform="matrix(1.3333333,0,0,1,-44.333333,-13)"
         y="20"
         x="43"
         height="10"
         width="1"
         id="rect3872"
         style="opacity:0.01;fill:#e4e6e8;fill-opacity:1;stroke:none" />
      <path
         id="path4264"
         d="m 9,7 v 10 h 4 V 7 Z"
         style="opacity:0.2;fill:currentColor;fill-opacity:1;fill-rule:evenodd;stroke:none"
         inkscape:connector-curvature="0"
         class="ColorScheme-ViewBackground" />
    </g>
    <g
       inkscape:label="#slider-topright-5"
       transform="matrix(0.75,0,0,0.75,33.25,13.75)"
       id="background-vertical-topright">
      <rect
         transform="matrix(1.3333333,0,0,1.3333333,-44.333333,-18.333333)"
         y="15"
         x="40"
         height="4"
         width="4"
         id="rect3868"
         style="opacity:0.01;fill:#e4e6e8;fill-opacity:1;stroke:none" />
      <path
         sodipodi:nodetypes="ccccc"
         class="ColorScheme-Text"
         inkscape:connector-curvature="0"
         style="opacity:0.1;fill:currentColor;fill-opacity:1;fill-rule:evenodd;stroke:none"
         d="m 9,3 v 4 h 4 V 3 Z"
         id="rect3840-1" />
      <path
         sodipodi:nodetypes="ccccc"
         id="path4278"
         d="m 9,3 v 4 h 4 V 3 Z"
         style="opacity:0.2;fill:currentColor;fill-opacity:1;fill-rule:evenodd;stroke:none"
         inkscape:connector-curvature="0"
         class="ColorScheme-ViewBackground" />
    </g>
    <g
       inkscape:label="#slider-bottomright-2"
       transform="matrix(0.75,0,0,0.75,33.25,18.25)"
       id="background-vertical-bottomright">
      <rect
         transform="matrix(1.3333333,0,0,1.3333333,-44.333333,-24.333333)"
         y="31"
         x="40"
         height="4"
         width="4"
         id="rect3878"
         style="opacity:0.01;fill:#e4e6e8;fill-opacity:1;stroke:none" />
      <path
         sodipodi:nodetypes="ccccc"
         class="ColorScheme-Text"
         id="path3871-2"
         d="m 9,21 v -4 h 4 v 4 z"
         style="opacity:0.1;fill:currentColor;fill-opacity:1;fill-rule:evenodd;stroke:none"
         inkscape:connector-curvature="0" />
      <path
         sodipodi:nodetypes="ccccc"
         inkscape:connector-curvature="0"
         style="opacity:0.2;fill:currentColor;fill-opacity:1;fill-rule:evenodd;stroke:none"
         d="m 9,21 v -4 h 4 v 4 z"
         id="path4284"
         class="ColorScheme-ViewBackground" />
    </g>
    <g
       inkscape:label="#slider-left-4"
       transform="matrix(-0.75,0,0,1,43.75,13)"
       id="background-vertical-left">
      <path
         class="ColorScheme-Text"
         inkscape:connector-curvature="0"
         id="path3891-2"
         d="m 9,7 v 10 h 4 V 7 Z"
         style="opacity:0.1;fill:currentColor;fill-opacity:1;fill-rule:evenodd;stroke:none" />
      <rect
         transform="matrix(-1.3333333,0,0,1,58.333333,-13)"
         y="20"
         x="33"
         height="10"
         width="1"
         id="rect3870"
         style="opacity:0.01;fill:#e4e6e8;fill-opacity:1;stroke:none" />
      <path
         style="opacity:0.2;fill:currentColor;fill-opacity:1;fill-rule:evenodd;stroke:none"
         d="m 9,7 v 10 h 4 V 7 Z"
         id="path4262"
         inkscape:connector-curvature="0"
         class="ColorScheme-ViewBackground" />
    </g>
    <g
       inkscape:label="#slider-topleft-8"
       transform="matrix(-0.75,0,0,0.75,43.75,13.75)"
       id="background-vertical-topleft">
      <rect
         transform="matrix(-1.3333333,0,0,1.3333333,58.333333,-18.333333)"
         y="15"
         x="33"
         height="4"
         width="4"
         id="rect3864"
         style="opacity:0.01;fill:#e4e6e8;fill-opacity:1;stroke:none" />
      <path
         sodipodi:nodetypes="ccccc"
         class="ColorScheme-Text"
         inkscape:connector-curvature="0"
         id="path3895-9"
         d="m 9,3 v 4 h 4 V 3 Z"
         style="opacity:0.1;fill:currentColor;fill-opacity:1;fill-rule:evenodd;stroke:none" />
      <path
         sodipodi:nodetypes="ccccc"
         style="opacity:0.2;fill:currentColor;fill-opacity:1;fill-rule:evenodd;stroke:none"
         d="m 9,3 v 4 h 4 V 3 Z"
         id="path4274"
         inkscape:connector-curvature="0"
         class="ColorScheme-ViewBackground" />
    </g>
    <g
       inkscape:label="#slider-bottomleft-2"
       transform="matrix(-0.75,0,0,0.75,43.75,18.25)"
       id="background-vertical-bottomleft">
      <rect
         transform="matrix(-1.3333333,0,0,1.3333333,58.333333,-24.333333)"
         y="31"
         x="33"
         height="4"
         width="4"
         id="rect3874"
         style="opacity:0.01;fill:#e4e6e8;fill-opacity:1;stroke:none" />
      <path
         sodipodi:nodetypes="ccccc"
         class="ColorScheme-Text"
         inkscape:connector-curvature="0"
         style="opacity:0.1;fill:currentColor;fill-opacity:1;fill-rule:evenodd;stroke:none"
         d="m 9,21 v -4 h 4 v 4 z"
         id="path3901-7" />
      <path
         sodipodi:nodetypes="ccccc"
         id="path4280"
         d="m 9,21 v -4 h 4 v 4 z"
         style="opacity:0.2;fill:currentColor;fill-opacity:1;fill-rule:evenodd;stroke:none"
         inkscape:connector-curvature="0"
         class="ColorScheme-ViewBackground" />
    </g>
    <g
       inkscape:label="#slider-top-0"
       id="background-vertical-top"
       transform="matrix(0,-0.75,-0.1,0,39.7,25.75)">
      <rect
         transform="matrix(0,-10,-1.3333333,0,34.333333,397)"
         y="15"
         x="38"
         height="4"
         width="1"
         id="rect3866"
         style="opacity:0.01;fill:#e4e6e8;fill-opacity:1;stroke:none" />
      <path
         class="ColorScheme-Text"
         style="opacity:0.1;fill:currentColor;fill-opacity:1;fill-rule:evenodd;stroke:none"
         d="m 9,7 v 10 h 4 V 7 Z"
         id="path3909-8"
         inkscape:connector-curvature="0" />
      <path
         inkscape:connector-curvature="0"
         id="path4276"
         d="m 9,7 v 10 h 4 V 7 Z"
         style="opacity:0.2;fill:currentColor;fill-opacity:1;fill-rule:evenodd;stroke:none"
         class="ColorScheme-ViewBackground" />
    </g>
    <g
       inkscape:label="#slider-bottom-2"
       transform="matrix(0,0.75,-0.1,0,39.7,24.25)"
       id="background-vertical-bottom">
      <rect
         transform="matrix(0,-10,1.3333333,0,-32.333333,397)"
         y="31"
         x="38"
         height="4"
         width="1"
         id="rect3876"
         style="opacity:0.01;fill:#e4e6e8;fill-opacity:1;stroke:none" />
      <path
         class="ColorScheme-Text"
         inkscape:connector-curvature="0"
         id="path3915-5"
         d="m 9,7 v 10 h 4 V 7 Z"
         style="opacity:0.1;fill:currentColor;fill-opacity:1;fill-rule:evenodd;stroke:none" />
      <path
         style="opacity:0.2;fill:currentColor;fill-opacity:1;fill-rule:evenodd;stroke:none"
         d="m 9,7 v 10 h 4 V 7 Z"
         id="path4282"
         inkscape:connector-curvature="0"
         class="ColorScheme-ViewBackground" />
    </g>
    <rect
       inkscape:label="#slider-center-6"
       class="ColorScheme-ButtonHover"
       y="64"
       x="24"
       height="10"
       width="1"
       id="sunken-slider-center"
       style="fill:currentColor;fill-opacity:1;fill-rule:evenodd;stroke:none" />
    <g
       inkscape:label="#slider-right-9"
       transform="matrix(0.75,0,0,1,19.25,57)"
       id="sunken-slider-right">
      <path
         class="ColorScheme-ButtonHover"
         inkscape:connector-curvature="0"
         style="fill:currentColor;fill-opacity:1;fill-rule:evenodd;stroke:none"
         d="m 9,7 v 10 h 4 V 7 Z"
         id="rect3838-4-8" />
      <rect
         transform="matrix(1.3333333,0,0,1,-25.666667,-57)"
         y="64"
         x="29"
         height="10"
         width="1"
         id="rect3924"
         style="opacity:0.01;fill:#e4e6e8;fill-opacity:1;stroke:none" />
    </g>
    <g
       inkscape:label="#slider-topright-4"
       transform="matrix(0.75,0,0,0.75,19.25,57.75)"
       id="sunken-slider-topright">
      <rect
         transform="matrix(1.3333333,0,0,1.3333333,-25.666667,-77)"
         y="59"
         x="26"
         height="4"
         width="4"
         id="rect3920"
         style="opacity:0.01;fill:#e4e6e8;fill-opacity:1;stroke:none" />
      <path
         sodipodi:nodetypes="ccccc"
         class="ColorScheme-ButtonHover"
         inkscape:connector-curvature="0"
         style="fill:currentColor;fill-opacity:1;fill-rule:evenodd;stroke:none"
         d="m 9,3 v 4 h 4 V 3 Z"
         id="rect3840-2-9" />
    </g>
    <g
       inkscape:label="#slider-bottomright-7"
       transform="matrix(0.75,0,0,0.75,19.25,62.25)"
       id="sunken-slider-bottomright">
      <rect
         transform="matrix(1.3333333,0,0,1.3333333,-25.666667,-83)"
         y="75"
         x="26"
         height="4"
         width="4"
         id="rect3930"
         style="opacity:0.01;fill:#e4e6e8;fill-opacity:1;stroke:none" />
      <path
         sodipodi:nodetypes="ccccc"
         class="ColorScheme-ButtonHover"
         id="path3871-1-7"
         d="m 9,21 v -4 h 4 v 4 z"
         style="fill:currentColor;fill-opacity:1;fill-rule:evenodd;stroke:none"
         inkscape:connector-curvature="0" />
    </g>
    <g
       inkscape:label="#slider-left-5"
       transform="matrix(-0.75,0,0,1,29.75,57)"
       id="sunken-slider-left">
      <path
         class="ColorScheme-ButtonHover"
         inkscape:connector-curvature="0"
         id="path3891-9-4"
         d="m 9,7 v 10 h 4 V 7 Z"
         style="fill:currentColor;fill-opacity:1;fill-rule:evenodd;stroke:none" />
      <rect
         transform="matrix(-1.3333333,0,0,1,39.666667,-57)"
         y="64"
         x="19"
         height="10"
         width="1"
         id="rect3922"
         style="opacity:0.01;fill:#e4e6e8;fill-opacity:1;stroke:none" />
    </g>
    <g
       inkscape:label="#slider-topleft-2"
       transform="matrix(-0.75,0,0,0.75,29.75,57.75)"
       id="sunken-slider-topleft">
      <rect
         transform="matrix(-1.3333333,0,0,1.3333333,39.666667,-77)"
         y="59"
         x="19"
         height="4"
         width="4"
         id="rect3916"
         style="opacity:0.01;fill:#e4e6e8;fill-opacity:1;stroke:none" />
      <path
         sodipodi:nodetypes="ccccc"
         class="ColorScheme-ButtonHover"
         inkscape:connector-curvature="0"
         id="path3895-2-1"
         d="m 9,3 v 4 h 4 V 3 Z"
         style="fill:currentColor;fill-opacity:1;fill-rule:evenodd;stroke:none" />
    </g>
    <g
       inkscape:label="#slider-bottomleft-5"
       transform="matrix(-0.75,0,0,0.75,29.75,62.25)"
       id="sunken-slider-bottomleft">
      <rect
         transform="matrix(-1.3333333,0,0,1.3333333,39.666667,-83)"
         y="75"
         x="19"
         height="4"
         width="4"
         id="rect3926"
         style="opacity:0.01;fill:#e4e6e8;fill-opacity:1;stroke:none" />
      <path
         sodipodi:nodetypes="ccccc"
         class="ColorScheme-ButtonHover"
         inkscape:connector-curvature="0"
         style="fill:currentColor;fill-opacity:1;fill-rule:evenodd;stroke:none"
         d="m 9,21 v -4 h 4 v 4 z"
         id="path3901-9-9" />
    </g>
    <g
       inkscape:label="#slider-top-5"
       id="sunken-slider-top"
       transform="matrix(0,-0.75,-0.1,0,25.7,69.75)">
      <rect
         transform="matrix(0,-10,-1.3333333,0,93,257)"
         y="59"
         x="24"
         height="4"
         width="1"
         id="rect3918"
         style="opacity:0.01;fill:#e4e6e8;fill-opacity:1;stroke:none" />
      <path
         class="ColorScheme-ButtonHover"
         style="fill:currentColor;fill-opacity:1;fill-rule:evenodd;stroke:none"
         d="m 9,7 v 10 h 4 V 7 Z"
         id="path3909-6-1"
         inkscape:connector-curvature="0" />
    </g>
    <g
       inkscape:label="#slider-bottom-0"
       transform="matrix(0,0.75,-0.1,0,25.7,68.25)"
       id="sunken-slider-bottom">
      <rect
         transform="matrix(0,-10,1.3333333,0,-91,257)"
         y="75"
         x="24"
         height="4"
         width="1"
         id="rect3928"
         style="opacity:0.01;fill:#e4e6e8;fill-opacity:1;stroke:none" />
      <path
         class="ColorScheme-ButtonHover"
         inkscape:connector-curvature="0"
         id="path3915-6-3"
         d="m 9,7 v 10 h 4 V 7 Z"
         style="fill:currentColor;fill-opacity:1;fill-rule:evenodd;stroke:none" />
    </g>
    <rect
       style="opacity:0.6;fill:currentColor;fill-opacity:1;fill-rule:evenodd;stroke:none"
       id="mouseover-slider-center"
       width="1"
       height="10"
       x="24"
       y="42"
       class="ColorScheme-ButtonHover"
       inkscape:label="#slider-center-6" />
    <g
       id="mouseover-slider-right"
       transform="matrix(0.75,0,0,1,19.250001,35)"
       inkscape:label="#slider-right-9">
      <path
         id="path3963"
         d="m 9,7 v 10 h 4 V 7 Z"
         style="opacity:0.6;fill:currentColor;fill-opacity:1;fill-rule:evenodd;stroke:none"
         inkscape:connector-curvature="0"
         class="ColorScheme-ButtonHover" />
      <rect
         style="opacity:0.01;fill:#e4e6e8;fill-opacity:1;stroke:none"
         id="rect3965"
         width="1"
         height="10"
         x="29"
         y="64"
         transform="matrix(1.3333333,0,0,1,-25.666667,-57)" />
    </g>
    <g
       id="mouseover-slider-topright"
       transform="matrix(0.75,0,0,0.75,19.250001,35.75)"
       inkscape:label="#slider-topright-4">
      <rect
         style="opacity:0.01;fill:#e4e6e8;fill-opacity:1;stroke:none"
         id="rect3969"
         width="4"
         height="4"
         x="26"
         y="59"
         transform="matrix(1.3333333,0,0,1.3333333,-25.666667,-77)" />
      <path
         sodipodi:nodetypes="ccccc"
         id="path3971"
         d="m 9,3 v 4 h 4 l -10e-7,-4 z"
         style="opacity:0.6;fill:currentColor;fill-opacity:1;fill-rule:evenodd;stroke:none"
         inkscape:connector-curvature="0"
         class="ColorScheme-ButtonHover" />
    </g>
    <g
       id="mouseover-slider-bottomright"
       transform="matrix(0.75,0,0,0.75,19.250001,40.25)"
       inkscape:label="#slider-bottomright-7">
      <rect
         style="opacity:0.01;fill:#e4e6e8;fill-opacity:1;stroke:none"
         id="rect3975"
         width="4"
         height="4"
         x="26"
         y="75"
         transform="matrix(1.3333333,0,0,1.3333333,-25.666667,-83)" />
      <path
         sodipodi:nodetypes="ccccc"
         inkscape:connector-curvature="0"
         style="opacity:0.6;fill:currentColor;fill-opacity:1;fill-rule:evenodd;stroke:none"
         d="m 9,21 v -4 h 4 l -10e-7,4 z"
         id="path3977"
         class="ColorScheme-ButtonHover" />
    </g>
    <g
       id="mouseover-slider-left"
       transform="matrix(-0.75,0,0,1,29.750001,35)"
       inkscape:label="#slider-left-5">
      <path
         style="opacity:0.6;fill:currentColor;fill-opacity:1;fill-rule:evenodd;stroke:none"
         d="m 9,7 v 10 h 4 V 7 Z"
         id="path3981"
         inkscape:connector-curvature="0"
         class="ColorScheme-ButtonHover" />
      <rect
         style="opacity:0.01;fill:#e4e6e8;fill-opacity:1;stroke:none"
         id="rect3983"
         width="1"
         height="10"
         x="19"
         y="64"
         transform="matrix(-1.3333333,0,0,1,39.666667,-57)" />
    </g>
    <g
       id="mouseover-slider-topleft"
       transform="matrix(-0.75,0,0,0.75,29.750001,35.75)"
       inkscape:label="#slider-topleft-2">
      <rect
         style="opacity:0.01;fill:#e4e6e8;fill-opacity:1;stroke:none"
         id="rect3987"
         width="4"
         height="4"
         x="19"
         y="59"
         transform="matrix(-1.3333333,0,0,1.3333333,39.666667,-77)" />
      <path
         sodipodi:nodetypes="ccccc"
         style="opacity:0.6;fill:currentColor;fill-opacity:1;fill-rule:evenodd;stroke:none"
         d="m 9,3 v 4 h 4 l 10e-7,-4 z"
         id="path3989"
         inkscape:connector-curvature="0"
         class="ColorScheme-ButtonHover" />
    </g>
    <g
       id="mouseover-slider-bottomleft"
       transform="matrix(-0.75,0,0,0.75,29.750001,40.25)"
       inkscape:label="#slider-bottomleft-5">
      <rect
         style="opacity:0.01;fill:#e4e6e8;fill-opacity:1;stroke:none"
         id="rect3993"
         width="4"
         height="4"
         x="19"
         y="75"
         transform="matrix(-1.3333333,0,0,1.3333333,39.666667,-83)" />
      <path
         sodipodi:nodetypes="ccccc"
         id="path3995"
         d="m 9,21 v -4 h 4 l 10e-7,4 z"
         style="opacity:0.6;fill:currentColor;fill-opacity:1;fill-rule:evenodd;stroke:none"
         inkscape:connector-curvature="0"
         class="ColorScheme-ButtonHover" />
    </g>
    <g
       transform="matrix(0,-0.75,-0.1,0,25.700001,47.75)"
       id="mouseover-slider-top"
       inkscape:label="#slider-top-5">
      <rect
         style="opacity:0.01;fill:#e4e6e8;fill-opacity:1;stroke:none"
         id="rect3999"
         width="1"
         height="4"
         x="24"
         y="59"
         transform="matrix(0,-10,-1.3333333,0,93,257)" />
      <path
         inkscape:connector-curvature="0"
         id="path4001"
         d="m 9,7 v 10 h 4 V 7 Z"
         style="opacity:0.6;fill:currentColor;fill-opacity:1;fill-rule:evenodd;stroke:none"
         class="ColorScheme-ButtonHover" />
    </g>
    <g
       id="mouseover-slider-bottom"
       transform="matrix(0,0.75,-0.1,0,25.700001,46.25)"
       inkscape:label="#slider-bottom-0">
      <rect
         style="opacity:0.01;fill:#e4e6e8;fill-opacity:1;stroke:none"
         id="rect4005"
         width="1"
         height="4"
         x="24"
         y="75"
         transform="matrix(0,-10,1.3333333,0,-91,257)" />
      <path
         style="opacity:0.6;fill:currentColor;fill-opacity:1;fill-rule:evenodd;stroke:none"
         d="m 9,7 v 10 h 4 V 7 Z"
         id="path4007"
         inkscape:connector-curvature="0"
         class="ColorScheme-ButtonHover" />
    </g>
    <g
       id="background-vertical-center">
      <rect
         style="opacity:0.1;fill:currentColor;fill-opacity:1;fill-rule:evenodd;stroke:none"
         id="rect4272"
         width="1"
         height="10"
         x="38"
         y="20"
         class="ColorScheme-Text"
         inkscape:label="#slider-center-1" />
      <rect
         inkscape:label="#slider-center-1"
         class="ColorScheme-ViewBackground"
         y="20"
         x="38"
         height="10"
         width="1"
         id="rect4266"
         style="opacity:0.2;fill:currentColor;fill-opacity:1;fill-rule:evenodd;stroke:none" />
    </g>
    <g
       id="background-horizontal-right"
       transform="matrix(0.75,0,0,1,33.250001,35.000001)"
       inkscape:label="#slider-right-1">
      <path
         id="path4288"
         d="m 9,7 v 10 h 4 V 7 Z"
         style="opacity:0.1;fill:currentColor;fill-opacity:1;fill-rule:evenodd;stroke:none"
         inkscape:connector-curvature="0"
         class="ColorScheme-Text" />
      <rect
         style="opacity:0.01;fill:#e4e6e8;fill-opacity:1;stroke:none"
         id="rect4290"
         width="1"
         height="10"
         x="43"
         y="20"
         transform="matrix(1.3333333,0,0,1,-44.333333,-13)" />
      <path
         class="ColorScheme-ViewBackground"
         inkscape:connector-curvature="0"
         style="opacity:0.2;fill:currentColor;fill-opacity:1;fill-rule:evenodd;stroke:none"
         d="m 9,7 v 10 h 4 V 7 Z"
         id="path4292" />
    </g>
    <g
       id="background-horizontal-topright"
       transform="matrix(0.75,0,0,0.75,33.250001,35.750001)"
       inkscape:label="#slider-topright-5">
      <rect
         style="opacity:0.01;fill:#e4e6e8;fill-opacity:1;stroke:none"
         id="rect4296"
         width="4"
         height="4"
         x="40"
         y="15"
         transform="matrix(1.3333333,0,0,1.3333333,-44.333333,-18.333333)" />
      <path
         sodipodi:nodetypes="ccccc"
         id="path4298"
         d="m 9,3 v 4 h 4 l -10e-7,-4.0000013 z"
         style="opacity:0.1;fill:currentColor;fill-opacity:1;fill-rule:evenodd;stroke:none"
         inkscape:connector-curvature="0"
         class="ColorScheme-Text" />
      <path
         sodipodi:nodetypes="ccccc"
         class="ColorScheme-ViewBackground"
         inkscape:connector-curvature="0"
         style="opacity:0.2;fill:currentColor;fill-opacity:1;fill-rule:evenodd;stroke:none"
         d="m 9,3 v 4 h 4 l -10e-7,-4.0000013 z"
         id="path4300" />
    </g>
    <g
       id="background-horizontal-bottomright"
       transform="matrix(0.75,0,0,0.75,33.250001,40.250001)"
       inkscape:label="#slider-bottomright-2">
      <rect
         style="opacity:0.01;fill:#e4e6e8;fill-opacity:1;stroke:none"
         id="rect4304"
         width="4"
         height="4"
         x="40"
         y="31"
         transform="matrix(1.3333333,0,0,1.3333333,-44.333333,-24.333333)" />
      <path
         sodipodi:nodetypes="ccccc"
         inkscape:connector-curvature="0"
         style="opacity:0.1;fill:currentColor;fill-opacity:1;fill-rule:evenodd;stroke:none"
         d="m 9,21 v -4 h 4 l -10e-7,3.999999 z"
         id="path4306"
         class="ColorScheme-Text" />
      <path
         sodipodi:nodetypes="ccccc"
         class="ColorScheme-ViewBackground"
         id="path4308"
         d="m 9,21 v -4 h 4 l -10e-7,3.999999 z"
         style="opacity:0.2;fill:currentColor;fill-opacity:1;fill-rule:evenodd;stroke:none"
         inkscape:connector-curvature="0" />
    </g>
    <g
       id="background-horizontal-left"
       transform="matrix(-0.75,0,0,1,43.750001,35.000001)">
      <path
         style="opacity:0.1;fill:currentColor;fill-opacity:1;fill-rule:evenodd;stroke:none"
         d="m 9,7 v 10 h 4 V 7 Z"
         id="path4312"
         inkscape:connector-curvature="0"
         class="ColorScheme-Text" />
      <rect
         style="opacity:0.01;fill:#e4e6e8;fill-opacity:1;stroke:none"
         id="rect4314"
         width="1"
         height="10"
         x="33"
         y="20"
         transform="matrix(-1.3333333,0,0,1,58.333333,-13)" />
      <path
         class="ColorScheme-ViewBackground"
         inkscape:connector-curvature="0"
         id="path4316"
         d="m 9,7 v 10 h 4 V 7 Z"
         style="opacity:0.2;fill:currentColor;fill-opacity:1;fill-rule:evenodd;stroke:none" />
    </g>
    <g
       id="background-horizontal-topleft"
       transform="matrix(-0.75,0,0,0.75,43.750001,35.750001)"
       inkscape:label="#slider-topleft-8">
      <rect
         style="opacity:0.01;fill:#e4e6e8;fill-opacity:1;stroke:none"
         id="rect4320"
         width="4"
         height="4"
         x="33"
         y="15"
         transform="matrix(-1.3333333,0,0,1.3333333,58.333333,-18.333333)" />
      <path
         sodipodi:nodetypes="ccccc"
         style="opacity:0.1;fill:currentColor;fill-opacity:1;fill-rule:evenodd;stroke:none"
         d="m 9,3 v 4 h 4 l 10e-7,-4.0000013 z"
         id="path4322"
         inkscape:connector-curvature="0"
         class="ColorScheme-Text" />
      <path
         sodipodi:nodetypes="ccccc"
         class="ColorScheme-ViewBackground"
         inkscape:connector-curvature="0"
         id="path4324"
         d="m 9,3 v 4 h 4 l 10e-7,-4.0000013 z"
         style="opacity:0.2;fill:currentColor;fill-opacity:1;fill-rule:evenodd;stroke:none" />
    </g>
    <g
       id="background-horizontal-bottomleft"
       transform="matrix(-0.75,0,0,0.75,43.750001,40.250001)"
       inkscape:label="#slider-bottomleft-2">
      <rect
         style="opacity:0.01;fill:#e4e6e8;fill-opacity:1;stroke:none"
         id="rect4328"
         width="4"
         height="4"
         x="33"
         y="31"
         transform="matrix(-1.3333333,0,0,1.3333333,58.333333,-24.333333)" />
      <path
         sodipodi:nodetypes="ccccc"
         id="path4330"
         d="m 9,21 v -4 h 4 l 10e-7,3.999999 z"
         style="opacity:0.1;fill:currentColor;fill-opacity:1;fill-rule:evenodd;stroke:none"
         inkscape:connector-curvature="0"
         class="ColorScheme-Text" />
      <path
         sodipodi:nodetypes="ccccc"
         class="ColorScheme-ViewBackground"
         inkscape:connector-curvature="0"
         style="opacity:0.2;fill:currentColor;fill-opacity:1;fill-rule:evenodd;stroke:none"
         d="m 9,21 v -4 h 4 l 10e-7,3.999999 z"
         id="path4332" />
    </g>
    <g
       transform="matrix(0,-0.75,-0.1,0,39.700001,47.750001)"
       id="background-horizontal-top"
       inkscape:label="#slider-top-0">
      <rect
         style="opacity:0.01;fill:#e4e6e8;fill-opacity:1;stroke:none"
         id="rect4336"
         width="1"
         height="4"
         x="38"
         y="15"
         transform="matrix(0,-10,-1.3333333,0,34.333333,397)" />
      <path
         inkscape:connector-curvature="0"
         id="path4338"
         d="m 9,7 v 10 h 4 V 7 Z"
         style="opacity:0.1;fill:currentColor;fill-opacity:1;fill-rule:evenodd;stroke:none"
         class="ColorScheme-Text" />
      <path
         class="ColorScheme-ViewBackground"
         style="opacity:0.2;fill:currentColor;fill-opacity:1;fill-rule:evenodd;stroke:none"
         d="m 9,7 v 10 h 4 V 7 Z"
         id="path4340"
         inkscape:connector-curvature="0" />
    </g>
    <g
       id="background-horizontal-bottom"
       transform="matrix(0,0.75,-0.1,0,39.700001,46.250001)"
       inkscape:label="#slider-bottom-2">
      <rect
         style="opacity:0.01;fill:#e4e6e8;fill-opacity:1;stroke:none"
         id="rect4344"
         width="1"
         height="4"
         x="38"
         y="31"
         transform="matrix(0,-10,1.3333333,0,-32.333333,397)" />
      <path
         style="opacity:0.1;fill:currentColor;fill-opacity:1;fill-rule:evenodd;stroke:none"
         d="m 9,7 v 10 h 4 V 7 Z"
         id="path4346"
         inkscape:connector-curvature="0"
         class="ColorScheme-Text" />
      <path
         class="ColorScheme-ViewBackground"
         inkscape:connector-curvature="0"
         id="path4348"
         d="m 9,7 v 10 h 4 V 7 Z"
         style="opacity:0.2;fill:currentColor;fill-opacity:1;fill-rule:evenodd;stroke:none" />
    </g>
    <g
       transform="translate(9.35e-7,22.000001)"
       id="background-horizontal-center">
      <rect
         inkscape:label="#slider-center-1"
         class="ColorScheme-Text"
         y="20"
         x="38"
         height="10"
         width="1"
         id="rect4352"
         style="opacity:0.1;fill:currentColor;fill-opacity:1;fill-rule:evenodd;stroke:none" />
      <rect
         style="opacity:0.2;fill:currentColor;fill-opacity:1;fill-rule:evenodd;stroke:none"
         id="rect4354"
         width="1"
         height="10"
         x="38"
         y="20"
         class="ColorScheme-ViewBackground"
         inkscape:label="#slider-center-1" />
    </g>
  </g>
</svg>
