<?xml version="1.0" encoding="UTF-8" standalone="no"?>
<svg
   xmlns:dc="http://purl.org/dc/elements/1.1/"
   xmlns:cc="http://creativecommons.org/ns#"
   xmlns:rdf="http://www.w3.org/1999/02/22-rdf-syntax-ns#"
   xmlns:svg="http://www.w3.org/2000/svg"
   xmlns="http://www.w3.org/2000/svg"
   xmlns:sodipodi="http://sodipodi.sourceforge.net/DTD/sodipodi-0.dtd"
   xmlns:inkscape="http://www.inkscape.org/namespaces/inkscape"
   inkscape:version="1.0alpha2 (a30573dbe8, 2019-07-23)"
   sodipodi:docname="viewitem.svg"
   version="1"
   height="161"
   width="257"
   id="svg7080">
  <metadata
     id="metadata110">
    <rdf:RDF>
      <cc:Work
         rdf:about="">
        <dc:format>image/svg+xml</dc:format>
        <dc:type
           rdf:resource="http://purl.org/dc/dcmitype/StillImage" />
        <dc:title></dc:title>
      </cc:Work>
    </rdf:RDF>
  </metadata>
  <sodipodi:namedview
     inkscape:current-layer="svg7080"
     inkscape:window-maximized="1"
     inkscape:window-y="0"
     inkscape:window-x="0"
     inkscape:cy="135.76236"
     inkscape:cx="303.64578"
     inkscape:zoom="1.495465"
     showgrid="true"
     id="namedview108"
     inkscape:window-height="833"
     inkscape:window-width="1600"
     inkscape:pageshadow="2"
     inkscape:pageopacity="0"
     guidetolerance="10"
     gridtolerance="10"
     objecttolerance="10"
     borderopacity="1"
     inkscape:document-rotation="0"
     bordercolor="#666666"
     pagecolor="#ffffff">
    <inkscape:grid
       id="grid1037"
       type="xygrid" />
  </sodipodi:namedview>
  <defs
     id="defs7386">
    <style
       type="text/css"
       id="current-color-scheme">
   .ColorScheme-Text { color:#d3dae3; } .ColorScheme-Highlight { color:#5294e2; } .ColorScheme-ButtonBackground { color:#5c616c; }
  </style>
  </defs>
  <rect
     id="hint-tile-center"
     style="opacity:0.875;fill:#008000;fill-opacity:1;stroke:none;stop-opacity:1"
     width="40"
     height="40"
     x="49.929993"
     y="-90.320007" />
  <path
     id="selected-center"
     style="opacity:0.9;fill:currentColor;fill-opacity:1;fill-rule:nonzero;stroke:none;stop-opacity:1"
     class="ColorScheme-Highlight"
     d="m 30,15.01572 v 48 h 48 v -48 z"
     inkscape:connector-curvature="0" />
  <g
     id="selected-left"
     transform="matrix(1,0,0,3.0009825,-160.14285,-2475.3868)"
     style="opacity:1;stop-opacity:1">
    <path
       id="path4119"
       style="opacity:0.9;fill:currentColor;fill-opacity:1;fill-rule:nonzero;stroke:none"
       class="ColorScheme-Highlight"
       d="m 186.14285,829.85712 v 16 h 4 v -16 z"
       inkscape:connector-curvature="0" />
  </g>
  <g
     id="selected-topleft"
     transform="translate(-160.14285,-814.85718)"
     style="opacity:1;stop-opacity:1">
    <path
       id="path4131"
       style="opacity:0.9;fill:currentColor;fill-opacity:1;fill-rule:nonzero;stroke:none"
       class="ColorScheme-Highlight"
       d="m 186.14285,829.8571 h 4 v -4 h -1.46875 c -1.40502,0 -2.53125,1.11588 -2.53125,2.53125 z"
       inkscape:connector-curvature="0" />
  </g>
  <g
     id="selected-top"
     transform="matrix(0.36657704,0,0,1,-39.71201,-814.8414)"
     style="opacity:1;stop-opacity:1">
    <path
       id="path4143"
       style="opacity:0.9;fill:currentColor;fill-opacity:1;fill-rule:nonzero;stroke:none"
       class="ColorScheme-Highlight"
       d="m 190.14286,825.85714 v 4 h 131 v -4 z"
       inkscape:connector-curvature="0" />
  </g>
  <g
     id="selected-topright"
     transform="translate(-243.14285,-814.8414)"
     style="opacity:1;stop-opacity:1">
    <path
       id="path4155"
       style="opacity:0.9;fill:currentColor;fill-opacity:1;fill-rule:nonzero;stroke:none"
       class="ColorScheme-Highlight"
       d="m 321.14285,825.85714 v 4 h 4 v -1.46875 c 0,-1.40502 -1.11588,-2.53125 -2.53125,-2.53125 z"
       inkscape:connector-curvature="0" />
  </g>
  <g
     id="selected-right"
     transform="matrix(1,0,0,3.0000017,-243.14285,-2474.557)"
     style="opacity:1;stop-opacity:1">
    <path
       id="path4167"
       style="opacity:0.9;fill:currentColor;fill-opacity:1;fill-rule:nonzero;stroke:none"
       class="ColorScheme-Highlight"
       d="m 325.14286,829.85712 v 16 h -4 v -16 z"
       inkscape:connector-curvature="0" />
  </g>
  <path
     id="normal-center"
     style="opacity:0.00499998;fill:#ffffff;fill-opacity:0.0784314;fill-rule:nonzero;stroke:none;stop-opacity:1"
     d="m 129.99999,17.01572 v 48 h 48 v -48 z"
     inkscape:connector-curvature="0" />
  <g
     id="normal-bottom"
     style="opacity:0.00499998;stop-opacity:1"
     transform="matrix(0.36657704,0,0,0.49999749,60.28798,-353.92645)">
    <g
       id="g4980">
      <path
         id="path4983"
         style="opacity:0.822727;fill:#ffffff;fill-opacity:0.0784314;fill-rule:nonzero;stroke:none"
         d="m 190.12705,845.85714 v 4 l 130.9842,-0.0625 v -3.9375 z"
         inkscape:connector-curvature="0" />
      <path
         id="path4985"
         style="opacity:0.85;fill:#000000;fill-opacity:0.156863;fill-rule:nonzero;stroke:none"
         d="m 190.14285,849.85714 v 1 h 131 v -1 z"
         inkscape:connector-curvature="0" />
      <path
         id="path4987"
         style="fill:#ffffff;fill-opacity:0.156863;fill-rule:nonzero;stroke:none"
         d="m 190.14285,848.85714 v 1 h 131 v -1 z"
         inkscape:connector-curvature="0" />
    </g>
    <rect
       id="rect4989"
       style="opacity:0.521;fill:#ffffff;fill-opacity:0;stroke:none"
       width="1"
       height="2"
       x="547"
       y="869"
       transform="translate(-342.85715,-17.142857)" />
  </g>
  <g
     id="normal-bottomleft"
     style="opacity:0.00499998;stop-opacity:1"
     transform="matrix(0.5714288,0,0,0.49999749,18.34689,-353.92645)">
    <g
       id="g4993">
      <path
         id="path4995"
         style="opacity:0.85;fill:#000000;fill-opacity:0.156863;fill-rule:nonzero;stroke:none"
         d="m 188.6741,850.85716 c -1.94821,0 -3.53125,-1.58839 -3.53125,-3.53125 v -1.46875 h 1 v 1.46875 c 0,1.40502 1.11588,2.53125 2.53125,2.53125 h 1.46875 v 1 z"
         inkscape:connector-curvature="0" />
      <path
         id="path4997"
         style="opacity:0.822727;fill:#ffffff;fill-opacity:0.0784314;fill-rule:nonzero;stroke:none"
         d="m 190.14285,849.8572 v -4 h -4 v 1.46875 c 0,1.40502 1.11588,2.53125 2.53125,2.53125 z"
         inkscape:connector-curvature="0" />
      <path
         id="path4999"
         style="fill:#ffffff;fill-opacity:0.156863;stroke:none"
         d="m 188.74285,849.85718 c -1.66084,0 -2.6,-1.19855 -2.6,-2.7 v -1.3 h 1 l -0.021,1.29373 c -0.0208,1.28062 0.23073,1.70627 1.62099,1.70627 h 1.4 v 1 z"
         inkscape:connector-curvature="0" />
    </g>
    <rect
       id="rect5001"
       style="opacity:0.521;fill:#ffffff;fill-opacity:0;stroke:none"
       width="2"
       height="2"
       x="183.14"
       y="851.85999" />
  </g>
  <g
     id="normal-left"
     style="opacity:0.00499998;stop-opacity:1"
     transform="matrix(0.5714288,0,0,3.0009825,18.34689,-2473.3868)">
    <g
       id="g5005">
      <path
         id="path5007"
         style="opacity:0.822727;fill:#ffffff;fill-opacity:0.0784314;fill-rule:nonzero;stroke:none"
         d="m 186.14285,829.85712 v 16 h 4 v -16 z"
         inkscape:connector-curvature="0" />
      <path
         id="path5009"
         style="opacity:0.85;fill:#000000;fill-opacity:0.156863;fill-rule:nonzero;stroke:none"
         d="m 185.14285,829.85715 v 15.99999 h 1 v -15.99999 z"
         inkscape:connector-curvature="0" />
      <path
         id="path5011"
         style="fill:#ffffff;fill-opacity:0.156863;fill-rule:nonzero;stroke:none"
         d="m 186.14285,829.85715 v 15.99999 h 1 v -15.99999 z"
         inkscape:connector-curvature="0" />
    </g>
    <rect
       id="rect5013"
       style="opacity:0.521;fill:#ffffff;fill-opacity:0;stroke:none"
       width="2"
       height="3"
       x="183.14"
       y="834.85999" />
  </g>
  <g
     id="normal-topleft"
     style="opacity:0.00499998;stop-opacity:1"
     transform="matrix(0.5714288,0,0,0.57143084,18.34689,-457.206)">
    <g
       id="g5017">
      <path
         id="path5019"
         style="opacity:0.822727;fill:#ffffff;fill-opacity:0.0784314;fill-rule:nonzero;stroke:none"
         d="m 186.14285,829.8571 h 4 v -4 h -1.46875 c -1.40502,0 -2.53125,1.11588 -2.53125,2.53125 z"
         inkscape:connector-curvature="0" />
      <path
         id="path5021"
         style="opacity:0.85;fill:#000000;fill-opacity:0.156863;fill-rule:nonzero;stroke:none"
         d="m 185.14285,828.3884 c 0,-1.94821 1.58839,-3.53125 3.53125,-3.53125 h 1.46875 v 1 h -1.46875 c -1.40502,0 -2.53125,1.11588 -2.53125,2.53125 v 1.46875 h -1 z"
         inkscape:connector-curvature="0" />
      <path
         id="path5023"
         style="fill:#ffffff;fill-opacity:0.156863;fill-rule:nonzero;stroke:none"
         d="m 186.14285,829.8571 h 1 v -1 c 0,-1.41537 0.59498,-2 2,-2 h 1 v -1 h -1.46875 c -1.40502,0 -2.53125,1.11588 -2.53125,2.53125 z"
         inkscape:connector-curvature="0" />
    </g>
    <rect
       id="rect5025"
       style="opacity:0.521;fill:#ffffff;fill-opacity:0;stroke:none"
       width="2"
       height="2"
       x="183.14"
       y="822.85999" />
  </g>
  <g
     id="normal-top"
     style="opacity:0.00499998;stop-opacity:1"
     transform="matrix(0.36657704,0,0,0.57143165,60.28798,-457.1909)">
    <g
       id="g5029">
      <path
         id="path5031"
         style="opacity:0.822727;fill:#ffffff;fill-opacity:0.0784314;fill-rule:nonzero;stroke:none"
         d="m 190.14286,825.85714 v 4 h 131 v -4 z"
         inkscape:connector-curvature="0" />
      <path
         id="path5033"
         style="opacity:0.85;fill:#000000;fill-opacity:0.156863;fill-rule:nonzero;stroke:none"
         d="m 190.14285,824.85714 v 1 h 131 v -1 z"
         inkscape:connector-curvature="0" />
      <path
         id="path5035"
         style="fill:#ffffff;fill-opacity:0.156863;fill-rule:nonzero;stroke:none"
         d="m 190.14285,825.85714 v 1 h 131 v -1 z"
         inkscape:connector-curvature="0" />
    </g>
    <rect
       id="rect5037"
       style="opacity:0.521;fill:#ffffff;fill-opacity:0;stroke:none"
       width="3"
       height="2"
       x="200.14"
       y="822.85999" />
  </g>
  <g
     id="normal-topright"
     style="opacity:0.00499998;stop-opacity:1"
     transform="matrix(0.57142857,0,0,0.57143165,-5.51021,-457.1909)">
    <g
       id="g5041">
      <path
         id="path5043"
         style="opacity:0.822727;fill:#ffffff;fill-opacity:0.0784314;fill-rule:nonzero;stroke:none"
         d="m 321.14285,825.85714 v 4 h 4 v -1.46875 c 0,-1.40502 -1.11588,-2.53125 -2.53125,-2.53125 z"
         inkscape:connector-curvature="0" />
      <path
         id="path5045"
         style="opacity:0.85;fill:#000000;fill-opacity:0.156863;fill-rule:nonzero;stroke:none"
         d="m 322.6116,824.85714 c 1.94821,0 3.53125,1.58839 3.53125,3.53125 v 1.46875 h -1 v -1.46875 c 0,-1.40502 -1.11588,-2.53125 -2.53125,-2.53125 h -1.46875 v -1 z"
         inkscape:connector-curvature="0" />
      <path
         id="path5047"
         style="fill:#ffffff;fill-opacity:0.156863;fill-rule:nonzero;stroke:none"
         d="m 325.14285,829.8571 h -1 v -1 c 0,-1.41537 -0.59498,-2 -2,-2 h -1 v -1 h 1.46875 c 1.40502,0 2.53125,1.11588 2.53125,2.53125 z"
         inkscape:connector-curvature="0" />
    </g>
    <rect
       id="rect5049"
       style="opacity:0.521;fill:#ffffff;fill-opacity:0;stroke:none"
       width="2"
       height="2"
       x="326.14001"
       y="822.85999" />
  </g>
  <g
     id="normal-right"
     style="opacity:0.00499998;stop-opacity:1"
     transform="matrix(0.57142857,0,0,3.0000017,-5.51021,-2472.557)">
    <g
       id="g5053">
      <path
         id="path5055"
         style="opacity:0.822727;fill:#ffffff;fill-opacity:0.0784314;fill-rule:nonzero;stroke:none"
         d="m 325.14286,829.85712 v 16 h -4 v -16 z"
         inkscape:connector-curvature="0" />
      <path
         id="path5057"
         style="opacity:0.85;fill:#000000;fill-opacity:0.156863;fill-rule:nonzero;stroke:none"
         d="m 326.14286,829.85715 v 15.99999 h -1 v -15.99999 z"
         inkscape:connector-curvature="0" />
      <path
         id="path5059"
         style="fill:#ffffff;fill-opacity:0.156863;fill-rule:nonzero;stroke:none"
         d="m 325.14285,829.85714 v 15.99999 h -1 v -15.99999 z"
         inkscape:connector-curvature="0" />
    </g>
    <rect
       id="rect5061"
       style="opacity:0.521;fill:#ffffff;fill-opacity:0;stroke:none"
       width="2"
       height="3"
       x="326.14001"
       y="832.85999" />
  </g>
  <g
     id="normal-bottomright"
     style="opacity:0.00499998;stop-opacity:1"
     transform="matrix(0.57142857,0,0,0.49999749,-5.51021,-353.92645)">
    <g
       id="g5065">
      <g
         id="g5067">
        <path
           id="path5071"
           style="opacity:0.822727;fill:#ffffff;fill-opacity:0.0784314;fill-rule:nonzero;stroke:none"
           d="m 325.1429,845.85714 h -4 v 4 h 1.46875 c 1.40502,0 2.53125,-1.11588 2.53125,-2.53125 z"
           inkscape:connector-curvature="0" />
        <path
           id="path5069"
           style="fill:#ffffff;fill-opacity:0.156863;stroke:none"
           d="m 322.14285,849.85714 c 1.59707,0 3,-0.57542 3,-2.99996 0,-0.94263 0,-1 0,-1 h -1 c 0,0.88676 0,0.28587 0,1 0,0.89359 -0.31679,1.99996 -2,1.99996 h -1 v 1 z"
           inkscape:connector-curvature="0" />
        <path
           id="path5073"
           style="opacity:0.852;fill:#000000;fill-opacity:0.156863;fill-rule:nonzero;stroke:none"
           d="m 326.14286,847.32589 c 0,1.94821 -1.58839,3.53125 -3.53125,3.53125 h -1.46875 v -1 h 1.46875 c 1.40502,0 2.53125,-1.11588 2.53125,-2.53125 v -1.46875 h 1 z"
           inkscape:connector-curvature="0" />
      </g>
    </g>
    <rect
       id="rect5075"
       style="opacity:0.521;fill:#ffffff;fill-opacity:0;stroke:none"
       width="2"
       height="2"
       x="326.14001"
       y="851.85999" />
  </g>
  <path
     id="hover-center"
     style="opacity:0.25;fill:currentColor;fill-opacity:1;fill-rule:nonzero;stroke:none;stop-opacity:1"
     class="ColorScheme-Highlight"
     d="m 45,94.00028 v 48 h 48 v -48 z"
     inkscape:connector-curvature="0" />
  <g
     id="hover-left"
     transform="matrix(1,0,0,3.0009825,-145.14285,-2396.4022)"
     style="opacity:1;stop-opacity:1">
    <path
       id="path4119-9"
       style="opacity:0.25;fill:currentColor;fill-opacity:1;fill-rule:nonzero;stroke:none"
       class="ColorScheme-Highlight"
       d="m 186.14285,829.85712 v 16 h 4 v -16 z"
       inkscape:connector-curvature="0" />
  </g>
  <g
     id="hover-topleft"
     transform="translate(-145.14285,-735.8571)"
     style="opacity:1;stop-opacity:1">
    <path
       sodipodi:nodetypes="ccccc"
       id="path3133"
       style="opacity:0.25;fill:currentColor;fill-opacity:1;fill-rule:nonzero;stroke:none"
       class="ColorScheme-Highlight"
       d="m 186.14285,829.8571 h 4 v -4 h -4 z"
       inkscape:connector-curvature="0" />
  </g>
  <g
     id="hover-top"
     transform="matrix(0.36657704,0,0,1,-24.71201,-735.85684)"
     style="opacity:1;stop-opacity:1">
    <path
       id="path4143-7"
       style="opacity:0.25;fill:currentColor;fill-opacity:1;fill-rule:nonzero;stroke:none"
       class="ColorScheme-Highlight"
       d="m 190.14286,825.85714 v 4 h 131 v -4 z"
       inkscape:connector-curvature="0" />
  </g>
  <g
     id="hover-topright"
     transform="translate(-228.14285,-735.85684)"
     style="opacity:1;stop-opacity:1">
    <path
       sodipodi:nodetypes="ccccc"
       id="path4155-3"
       style="opacity:0.25;fill:currentColor;fill-opacity:1;fill-rule:nonzero;stroke:none"
       class="ColorScheme-Highlight"
       d="m 321.14285,825.85714 v 4 h 4 v -4.0003 z"
       inkscape:connector-curvature="0" />
  </g>
  <g
     id="hover-right"
     transform="matrix(1,0,0,3.0000017,-228.14285,-2395.5724)"
     style="opacity:1;stop-opacity:1">
    <path
       id="path4167-1"
       style="opacity:0.25;fill:currentColor;fill-opacity:1;fill-rule:nonzero;stroke:none"
       class="ColorScheme-Highlight"
       d="m 325.14286,829.85712 v 16 h -4 v -16 z"
       inkscape:connector-curvature="0" />
  </g>
  <path
     id="selected+hover-center"
     style="opacity:0.9;fill:currentColor;fill-opacity:1;fill-rule:nonzero;stroke:none;stop-opacity:1"
     class="ColorScheme-Highlight"
     d="m 150,93.0158 v 48 h 48 v -48 z"
     inkscape:connector-curvature="0" />
  <g
     id="selected+hover-left"
     transform="matrix(1,0,0,3.0009825,-40.14285,-2397.3867)"
     style="opacity:1;stop-opacity:1">
    <path
       id="path4119-9-6"
       style="opacity:0.9;fill:currentColor;fill-opacity:1;fill-rule:nonzero;stroke:none"
       class="ColorScheme-Highlight"
       d="m 186.14285,829.85712 v 16 h 4 v -16 z"
       inkscape:connector-curvature="0" />
  </g>
  <g
     id="selected+hover-topleft"
     transform="translate(-40.14285,-736.8571)"
     style="opacity:1;stop-opacity:1">
    <path
       id="path4131-9-7"
       style="opacity:0.9;fill:currentColor;fill-opacity:1;fill-rule:nonzero;stroke:none"
       class="ColorScheme-Highlight"
       d="m 186.14285,829.8571 h 4 v -4 h -1.46875 c -1.40502,0 -2.53125,1.11588 -2.53125,2.53125 z"
       inkscape:connector-curvature="0" />
  </g>
  <g
     id="selected+hover-top"
     transform="matrix(0.36657704,0,0,1,80.28799,-736.84132)"
     style="opacity:1;stop-opacity:1">
    <path
       id="path4143-7-8"
       style="opacity:0.9;fill:currentColor;fill-opacity:1;fill-rule:nonzero;stroke:none"
       class="ColorScheme-Highlight"
       d="m 190.14286,825.85714 v 4 h 131 v -4 z"
       inkscape:connector-curvature="0" />
  </g>
  <g
     id="selected+hover-topright"
     transform="translate(-123.14285,-736.84132)"
     style="opacity:1;stop-opacity:1">
    <path
       id="path4155-3-0"
       style="opacity:0.9;fill:currentColor;fill-opacity:1;fill-rule:nonzero;stroke:none"
       class="ColorScheme-Highlight"
       d="m 321.14285,825.85714 v 4 h 4 v -1.46875 c 0,-1.40502 -1.11588,-2.53125 -2.53125,-2.53125 z"
       inkscape:connector-curvature="0" />
  </g>
  <g
     id="selected+hover-right"
     transform="matrix(1,0,0,3.0000017,-123.14285,-2396.5569)"
     style="opacity:1;stop-opacity:1">
    <path
       id="path4167-1-9"
       style="opacity:0.9;fill:currentColor;fill-opacity:1;fill-rule:nonzero;stroke:none"
       class="ColorScheme-Highlight"
       d="m 325.14286,829.85712 v 16 h -4 v -16 z"
       inkscape:connector-curvature="0" />
  </g>
  <g
     id="selected-bottomright"
     transform="rotate(180,134.07142,446.4364)"
     style="opacity:1;stop-opacity:1">
    <path
       id="path4131-3"
       style="opacity:0.9;fill:currentColor;fill-opacity:1;fill-rule:nonzero;stroke:none"
       class="ColorScheme-Highlight"
       d="m 186.14285,829.8571 h 4 v -4 h -1.46875 c -1.40502,0 -2.53125,1.11588 -2.53125,2.53125 z"
       inkscape:connector-curvature="0" />
  </g>
  <g
     id="selected-bottom"
     transform="matrix(-0.36657704,0,0,-1,147.7236,892.8729)"
     style="opacity:1;stop-opacity:1">
    <path
       id="path4143-6"
       style="opacity:0.9;fill:currentColor;fill-opacity:1;fill-rule:nonzero;stroke:none"
       class="ColorScheme-Highlight"
       d="m 190.14286,825.85714 v 4 h 131 v -4 z"
       inkscape:connector-curvature="0" />
  </g>
  <g
     id="selected-bottomleft"
     transform="rotate(180,175.57142,446.43645)"
     style="opacity:1;stop-opacity:1">
    <path
       id="path4155-5"
       style="opacity:0.9;fill:currentColor;fill-opacity:1;fill-rule:nonzero;stroke:none"
       class="ColorScheme-Highlight"
       d="m 321.14285,825.85714 v 4 h 4 v -1.46875 c 0,-1.40502 -1.11588,-2.53125 -2.53125,-2.53125 z"
       inkscape:connector-curvature="0" />
  </g>
  <g
     id="hover-bottomright"
     transform="rotate(180,141.57143,485.92875)"
     style="opacity:1;stop-opacity:1">
    <path
       sodipodi:nodetypes="ccccc"
       id="path3133-3"
       style="opacity:0.25;fill:currentColor;fill-opacity:1;fill-rule:nonzero;stroke:none"
       class="ColorScheme-Highlight"
       d="m 186.14285,829.8571 h 4 v -4 l -3.99999,4e-4 z"
       inkscape:connector-curvature="0" />
  </g>
  <g
     id="hover-bottom"
     transform="matrix(-0.36657704,0,0,-1,162.7236,971.8577)"
     style="opacity:1;stop-opacity:1">
    <path
       id="path4143-7-6"
       style="opacity:0.25;fill:currentColor;fill-opacity:1;fill-rule:nonzero;stroke:none"
       class="ColorScheme-Highlight"
       d="m 190.14286,825.85714 v 4 h 131 v -4 z"
       inkscape:connector-curvature="0" />
  </g>
  <g
     id="hover-bottomleft"
     transform="rotate(180,183.07142,485.9287)"
     style="opacity:1;stop-opacity:1">
    <path
       sodipodi:nodetypes="ccccc"
       id="path4155-3-03"
       style="opacity:0.25;fill:currentColor;fill-opacity:1;fill-rule:nonzero;stroke:none"
       class="ColorScheme-Highlight"
       d="m 321.14285,825.85714 v 4 h 4 l -1e-5,-3.99974 z"
       inkscape:connector-curvature="0" />
  </g>
  <g
     id="selected_hover-bottomright"
     transform="rotate(180,194.07143,485.43648)"
     style="opacity:1;stop-opacity:1">
    <path
       id="path4131-9-7-7"
       style="opacity:0.9;fill:currentColor;fill-opacity:1;fill-rule:nonzero;stroke:none"
       class="ColorScheme-Highlight"
       d="m 186.14285,829.8571 h 4 v -4 h -1.46875 c -1.40502,0 -2.53125,1.11588 -2.53125,2.53125 z"
       inkscape:connector-curvature="0" />
  </g>
  <g
     id="selected_hover-bottom"
     transform="matrix(-0.36657704,0,0,-1,267.7236,970.87286)"
     style="opacity:1;stop-opacity:1">
    <path
       id="path4143-7-8-4"
       style="opacity:0.9;fill:currentColor;fill-opacity:1;fill-rule:nonzero;stroke:none"
       class="ColorScheme-Highlight"
       d="m 190.14286,825.85714 v 4 h 131 v -4 z"
       inkscape:connector-curvature="0" />
  </g>
  <g
     id="selected_hover-bottomleft"
     transform="rotate(180,235.57142,485.43648)"
     style="opacity:1;stop-opacity:1">
    <path
       id="path4155-3-0-0"
       style="opacity:0.9;fill:currentColor;fill-opacity:1;fill-rule:nonzero;stroke:none"
       class="ColorScheme-Highlight"
       d="m 321.14285,825.85714 v 4 h 4 v -1.46875 c 0,-1.40502 -1.11588,-2.53125 -2.53125,-2.53125 z"
       inkscape:connector-curvature="0" />
  </g>
</svg>
